<?xml version="1.0" encoding="UTF-8" standalone="no"?>
<!-- Created with Inkscape (http://www.inkscape.org/) -->

<svg
   xmlns:dc="http://purl.org/dc/elements/1.1/"
   xmlns:cc="http://creativecommons.org/ns#"
   xmlns:rdf="http://www.w3.org/1999/02/22-rdf-syntax-ns#"
   xmlns:svg="http://www.w3.org/2000/svg"
   xmlns="http://www.w3.org/2000/svg"
   xmlns:sodipodi="http://sodipodi.sourceforge.net/DTD/sodipodi-0.dtd"
   xmlns:inkscape="http://www.inkscape.org/namespaces/inkscape"
   width="210mm"
   height="297mm"
   id="svg3026"
   version="1.1"
   inkscape:version="0.48.4 r9939"
   sodipodi:docname="instrucoes.svg">
  <defs
     id="defs3028">
    <filter
       inkscape:collect="always"
       id="filter3842"
       x="-0.025230352"
       width="1.0504607"
       y="-0.13891722"
       height="1.2778344"
       color-interpolation-filters="sRGB">
      <feGaussianBlur
         inkscape:collect="always"
         stdDeviation="6.4458831"
         id="feGaussianBlur3844" />
    </filter>
    <filter
       height="1.3132134"
       y="-0.15660672"
       width="1.0583686"
       x="-0.029184312"
       id="filter4164"
       inkscape:collect="always">
      <feGaussianBlur
         id="feGaussianBlur4166"
         stdDeviation="7.2855449"
         inkscape:collect="always" />
    </filter>
  </defs>
  <sodipodi:namedview
     id="base"
     pagecolor="#ffffff"
     bordercolor="#666666"
     borderopacity="1.0"
     inkscape:pageopacity="0.0"
     inkscape:pageshadow="2"
     inkscape:zoom="0.7"
     inkscape:cx="552.23947"
     inkscape:cy="557.74817"
     inkscape:document-units="px"
     inkscape:current-layer="layer1"
     showgrid="false"
     inkscape:window-width="1366"
     inkscape:window-height="715"
     inkscape:window-x="-8"
     inkscape:window-y="-8"
     inkscape:window-maximized="1" />
  <metadata
     id="metadata3031">
    <rdf:RDF>
      <cc:Work
         rdf:about="">
        <dc:format>image/svg+xml</dc:format>
        <dc:type
           rdf:resource="http://purl.org/dc/dcmitype/StillImage" />
        <dc:title />
      </cc:Work>
    </rdf:RDF>
  </metadata>
  <g
     inkscape:label="Camada 1"
     inkscape:groupmode="layer"
     id="layer1">
    <flowRoot
       xml:space="preserve"
       id="flowRoot3207"
       style="font-size:144px;font-style:normal;font-variant:normal;font-weight:normal;font-stretch:normal;line-height:125%;letter-spacing:0px;word-spacing:0px;fill:#000000;fill-opacity:1;stroke:none;font-family:Verdana;-inkscape-font-specification:Verdana"
       transform="matrix(0.98073053,0,0,0.98073053,14.983447,-53.968547)"><flowRegion
         id="flowRegion3209"><rect
           id="rect3211"
           width="667.14282"
           height="741.42859"
           x="31.428572"
           y="306.64789" /></flowRegion><flowPara
         style="font-size:14px;font-weight:bold"
         id="flowPara3141">Para 1 a 4 jogadores</flowPara><flowPara
         style="font-size:14px;font-weight:bold"
         id="flowPara3153" /><flowPara
         style="font-size:14px;font-weight:bold"
         id="flowPara3155">Rodada Inicial</flowPara><flowPara
         style="font-size:14px"
         id="flowPara13707" /><flowPara
         style="font-size:14px"
         id="flowPara13677">Coloque o Baralho de Proposições de um lado da mesa. Coloque o Baralho de Ações do outro lado da mesa. Um jogador põe no centro do mesa uma Proposição para discussão.</flowPara><flowPara
         style="font-size:14px"
         id="flowPara13709" /><flowPara
         style="font-size:14px"
         id="flowPara13679">Em seguida, cada jogador saca 4 cartas em seus respectivos turnos do Baralho de Ações para Sua Mão.</flowPara><flowPara
         style="font-size:14px;font-weight:bold"
         id="flowPara13681" /><flowPara
         style="font-size:14px;font-weight:bold"
         id="flowPara3131">O Turno</flowPara><flowPara
         style="font-size:14px"
         id="flowPara13713" /><flowPara
         style="font-size:14px"
         id="flowPara13683">No seu turno você pode baixar 01 carta de Deputado ou 01 carta de Estratégia para Sua Mesa para somar pontos e tentar deliberar uma proposição. Vocẽ não é obrigado a baixar cartas em seu turno. Escolha bem sua estratégia.</flowPara><flowPara
         style="font-size:14px"
         id="flowPara13685" /><flowPara
         style="font-size:14px"
         id="flowPara13715">Os jogadores se alternam em turnos em sentido horário. </flowPara><flowPara
         style="font-size:14px"
         id="flowPara13687" /><flowPara
         style="font-size:14px;font-weight:bold"
         id="flowPara13717">A Deliberação</flowPara><flowPara
         style="font-size:14px"
         id="flowPara13689" /><flowPara
         style="font-size:14px"
         id="flowPara13719">Cada carta de Proposição possui uma pontuação específica que você deve tentar alcançar pela pontuação de suas cartas na mesa.</flowPara><flowPara
         style="font-size:14px"
         id="flowPara13691" /><flowPara
         style="font-size:14px"
         id="flowPara13723">As cartas de Deputados valem 3 pontos.</flowPara><flowPara
         style="font-size:14px"
         id="flowPara3100" /><flowPara
         style="font-size:14px"
         id="flowPara3102">As cartas de Comissões valem 10 pontos. Mas você só pode baixar esta carta em jogo se a Proposição em questão estiver sendo discutida na Comissão que você deseja baixar.</flowPara><flowPara
         style="font-size:14px"
         id="flowPara13695" /><flowPara
         style="font-size:14px"
         id="flowPara13725">Se a soma de seus Deputados e Comissões for igual ou maior que o valor da Proposição, você conseguiu deliberar aquela Proposição. Suas cartas de Deputados e a Proposição deliberada saem do jogo, mas as dos outros jogadores permanecem.</flowPara><flowPara
         style="font-size:14px"
         id="flowPara3099" /><flowPara
         style="font-size:14px"
         id="flowPara13697">Cartas de Estratégia podem alterar a pontuação de outras cartas ou gerar efeitos variados no jogo. Preste atenção no texto de cada carta para aprender seu efeito.</flowPara><flowPara
         style="font-size:14px"
         id="flowPara3103" /><flowPara
         style="font-size:14px;font-weight:bold"
         id="flowPara13727">O Fim do Jogo</flowPara><flowPara
         style="font-size:14px"
         id="flowPara13699" /><flowPara
         style="font-size:14px"
         id="flowPara13731">O jogo termina quando algum jogador conseguir deliberar 5 proposições.</flowPara><flowPara
         style="font-size:14px"
         id="flowPara13705" /><flowPara
         style="font-size:14px"
         id="flowPara13735">Então, os jogadores somam as pontuações das Proposições que aprovaram a fim de montar um placar do jogo. Se destaca o jogador com maior quantidade de pontos, independente da quantidade de proposições que conseguiu deliberar.</flowPara></flowRoot>    <g
       id="g3110"
       transform="matrix(0.90005322,0,0,0.90005322,44.63477,2.736283)">
      <g
         style="fill:#ffffff;fill-opacity:1;filter:url(#filter3842)"
         id="g3810"
         transform="translate(-33.28076,-491.38343)">
        <g
           style="fill:#ffffff;fill-opacity:1;stroke:#ffffff;stroke-width:1.75432694;stroke-linecap:round;stroke-linejoin:round;stroke-miterlimit:4;stroke-dasharray:none"
           transform="matrix(1.9950671,0,0,1.9950671,370.0128,580.49345)"
           id="g3812">
          <g
             style="fill:#ffffff;fill-opacity:1;stroke:#ffffff;stroke-width:1.75432694;stroke-linecap:round;stroke-linejoin:round;stroke-miterlimit:4;stroke-dasharray:none"
             id="g3814" />
          <g
             style="fill:#ffffff;fill-opacity:1;stroke:#ffffff;stroke-width:1.75432694;stroke-linecap:round;stroke-linejoin:round;stroke-miterlimit:4;stroke-dasharray:none"
             id="g3816">
            <path
               style="fill:#ffffff;fill-opacity:1;stroke:#ffffff;stroke-width:1.75432694;stroke-linecap:round;stroke-linejoin:round;stroke-miterlimit:4;stroke-dasharray:none"
               inkscape:connector-curvature="0"
               d="m 79.185,38.336 c 1.429,-1.658 2.299,-3.811 2.299,-6.166 0,-0.09 -0.018,-0.172 -0.026,-0.26 0.009,-0.088 0.027,-0.176 0.027,-0.268 0,-5.219 -4.245,-9.465 -9.466,-9.465 -0.078,0 -0.152,0.018 -0.23,0.023 -0.077,-0.006 -0.151,-0.023 -0.23,-0.023 -5.219,0 -9.465,4.246 -9.465,9.465 0,0.09 0.02,0.176 0.027,0.262 -0.009,0.09 -0.027,0.174 -0.027,0.266 0,2.516 0.992,4.797 2.597,6.494 -0.652,0.312 -1.279,0.672 -1.881,1.064 -1.537,-5.398 -6.5,-9.365 -12.384,-9.365 -0.107,0 -0.209,0.023 -0.314,0.031 -0.105,-0.008 -0.205,-0.031 -0.312,-0.031 -5.864,0 -10.815,3.941 -12.37,9.311 -0.797,-0.514 -1.634,-0.967 -2.517,-1.338 1.428,-1.658 2.299,-3.811 2.299,-6.166 0,-0.09 -0.019,-0.172 -0.027,-0.26 0.009,-0.088 0.027,-0.176 0.027,-0.268 0,-5.219 -4.246,-9.465 -9.465,-9.465 -0.08,0 -0.153,0.018 -0.231,0.023 -0.077,-0.006 -0.151,-0.023 -0.229,-0.023 -5.219,0 -9.465,4.246 -9.465,9.465 0,0.09 0.02,0.176 0.025,0.262 -0.008,0.09 -0.025,0.174 -0.025,0.266 0,2.516 0.992,4.797 2.596,6.494 C 14.853,41.33 11,47.018 11,53.588 c 0,1.684 1.366,3.049 3.05,3.049 1.684,0 3.049,-1.365 3.049,-3.049 0,-5.758 4.686,-10.443 10.445,-10.443 0.166,0 0.325,-0.021 0.483,-0.049 0.159,0.027 0.34,0.049 0.506,0.049 5.76,0 10.467,4.685 10.467,10.443 0,0.002 0,0.004 0,0.006 -6,3.891 -11.35,11.186 -11.35,19.529 0,2.293 1.85,4.15 4.141,4.15 2.293,0 4.146,-1.857 4.146,-4.15 0,-7.838 6.376,-14.217 14.217,-14.217 0.226,0 0.441,-0.031 0.657,-0.066 0.217,0.035 0.434,0.066 0.66,0.066 7.84,0 14.219,6.379 14.219,14.217 0,2.293 1.857,4.15 4.149,4.15 2.293,0 4.15,-1.857 4.15,-4.15 0,-8.848 -5.139,-16.516 -12.584,-20.193 0.343,-5.451 4.876,-9.785 10.413,-9.785 0.165,0 0.325,-0.021 0.483,-0.049 0.159,0.027 0.318,0.049 0.484,0.049 5.76,0 10.445,4.686 10.445,10.443 0,1.684 1.365,3.049 3.049,3.049 1.684,0 3.049,-1.365 3.049,-3.049 C 89.329,46.736 85.139,40.842 79.185,38.336 z M 31.111,32.17 c 0,1.857 -1.511,3.369 -3.366,3.369 -0.08,0 -0.153,0.018 -0.231,0.021 -0.077,-0.004 -0.151,-0.021 -0.229,-0.021 -1.857,0 -3.367,-1.512 -3.367,-3.369 0,-0.09 -0.02,-0.174 -0.027,-0.262 0.008,-0.088 0.027,-0.174 0.027,-0.266 0,-1.857 1.51,-3.367 3.367,-3.367 0.078,0 0.152,-0.018 0.229,-0.023 0.078,0.006 0.151,0.023 0.231,0.023 1.857,0 3.367,1.51 3.367,3.367 0,0.09 0.02,0.174 0.026,0.26 -0.006,0.09 -0.027,0.176 -0.027,0.268 z m 23.897,11.797 c 0,2.527 -2.056,4.586 -4.583,4.586 -0.107,0 -0.209,0.023 -0.314,0.029 -0.105,-0.006 -0.205,-0.029 -0.314,-0.029 -2.527,0 -4.583,-2.059 -4.583,-4.586 0,-0.121 -0.025,-0.236 -0.036,-0.355 0.011,-0.123 0.037,-0.24 0.037,-0.363 0,-2.527 2.055,-4.584 4.584,-4.584 0.107,0 0.207,-0.023 0.312,-0.031 0.105,0.008 0.207,0.031 0.314,0.031 2.527,0 4.584,2.057 4.584,4.584 0,0.121 0.025,0.234 0.035,0.355 -0.01,0.121 -0.036,0.238 -0.036,0.363 z M 75.386,32.17 c 0,1.857 -1.51,3.369 -3.367,3.369 -0.078,0 -0.152,0.018 -0.23,0.021 -0.077,-0.004 -0.151,-0.021 -0.23,-0.021 -1.856,0 -3.367,-1.512 -3.367,-3.369 0,-0.09 -0.018,-0.174 -0.026,-0.262 0.009,-0.088 0.027,-0.174 0.027,-0.266 0,-1.857 1.51,-3.367 3.366,-3.367 0.079,0 0.153,-0.018 0.23,-0.023 0.078,0.006 0.152,0.023 0.23,0.023 1.857,0 3.367,1.51 3.367,3.367 0,0.09 0.02,0.174 0.027,0.26 -0.008,0.09 -0.027,0.176 -0.027,0.268 z"
               id="path3818" />
          </g>
        </g>
        <path
           style="fill:#ffffff;fill-opacity:1;stroke:#ffffff;stroke-width:3.5;stroke-linecap:round;stroke-linejoin:round;stroke-miterlimit:4;stroke-dasharray:none"
           inkscape:connector-curvature="0"
           d="m 359.02732,644.13267 c 0,-1.42249 -0.56711,-2.78599 -1.5713,-3.79287 l -12.48335,-12.48333 c -2.09284,-2.09419 -5.49154,-2.09419 -7.58438,0 l -3.02732,3.02732 c -1.95207,-2.65326 -5.08799,-4.38144 -8.63283,-4.38144 h -63.8512 c -5.92325,0 -10.72567,4.80242 -10.72567,10.72567 v 85.13634 c 0,5.92325 4.80242,10.72566 10.72567,10.72566 h 63.8512 c 5.92326,0 10.72567,-4.80241 10.72567,-10.72566 v -53.43662 l 21.00221,-21.0022 c 1.00419,-1.00687 1.5713,-2.37037 1.5713,-3.79287 z m -33.29918,78.23304 h -63.8512 v -85.13634 h 63.8512 v 2.28993 l -8.47327,8.47461 c -0.96126,-0.91302 -2.25504,-1.48014 -3.68288,-1.48014 h -38.21021 c -2.96162,0 -5.36283,2.40121 -5.36283,5.36284 0,2.96162 2.40121,5.36283 5.36283,5.36283 h 32.64894 l -8.04425,8.04426 h -24.60469 c -2.96162,0 -5.36283,2.40121 -5.36283,5.36282 0,2.96163 2.40121,5.36284 5.36283,5.36284 h 13.87902 l -6.12302,6.12301 c -0.44108,0.43976 -0.80174,0.95459 -1.06586,1.51903 l -0.39685,0.84867 h -6.29194 c -2.96163,0 -5.36284,2.40121 -5.36284,5.36283 0,2.96163 2.40121,5.36284 5.36284,5.36284 h 1.27098 l -5.56125,11.88806 c -0.95861,2.04324 -0.53092,4.46858 1.06586,6.06402 1.02833,1.02967 2.39853,1.57132 3.79287,1.57132 0.76822,0 1.54449,-0.16491 2.27116,-0.50545 l 23.4624,-10.97906 c 0.56443,-0.26412 1.07927,-0.62477 1.51902,-1.06587 l 6.97302,-6.97302 h 3.41613 c 2.96163,0 5.36279,-2.40121 5.36279,-5.36284 0,-0.97872 -0.28155,-1.88503 -0.74007,-2.67471 l 7.53345,-7.53479 v 42.71231 z m -29.46336,-28.41767 -9.20665,4.30904 4.30903,-9.20664 37.57198,-37.57337 4.89896,4.89762 -37.57332,37.57335 z m 45.15636,-45.15774 -4.89895,-4.89895 4.66031,-4.65897 4.89759,4.89895 -4.65895,4.65897 z"
           id="path3820" />
        <g
           style="fill:#ffffff;fill-opacity:1;stroke:#ffffff;stroke-width:2.87766957;stroke-linecap:round;stroke-linejoin:round;stroke-miterlimit:4;stroke-dasharray:none"
           transform="matrix(1.2162619,0,0,1.2162619,582.36236,622.25983)"
           id="g3822">
          <g
             style="fill:#ffffff;fill-opacity:1;stroke:#ffffff;stroke-width:2.87766957;stroke-linecap:round;stroke-linejoin:round;stroke-miterlimit:4;stroke-dasharray:none"
             id="g3824" />
          <g
             style="fill:#ffffff;fill-opacity:1;stroke:#ffffff;stroke-width:2.87766957;stroke-linecap:round;stroke-linejoin:round;stroke-miterlimit:4;stroke-dasharray:none"
             id="g3826">
            <g
               style="fill:#ffffff;fill-opacity:1;stroke:#ffffff;stroke-width:2.87766957;stroke-linecap:round;stroke-linejoin:round;stroke-miterlimit:4;stroke-dasharray:none"
               id="g3828">
              <path
                 style="fill:#ffffff;fill-opacity:1;stroke:#ffffff;stroke-width:2.87766957;stroke-linecap:round;stroke-linejoin:round;stroke-miterlimit:4;stroke-dasharray:none"
                 inkscape:connector-curvature="0"
                 d="M 95.4,66.265 C 87.073,51.847 73.444,28.238 65.117,13.822 56.791,-0.606 43.162,-0.606 34.834,13.822 26.512,28.238 12.882,51.847 4.554,66.265 -3.772,80.691 3.039,92.49 19.696,92.49 c 16.655,0 43.907,0 60.56,0 16.655,0 23.471,-11.799 15.144,-26.225 z M 49.574,76.562 c -4.262,0 -7.712,-3.453 -7.712,-7.714 0,-4.262 3.45,-7.716 7.712,-7.716 4.263,0 7.715,3.454 7.715,7.716 0,4.26 -3.452,7.714 -7.715,7.714 z M 57.575,48.47 c 0,4.417 -3.584,8.002 -8.001,8.002 -4.416,0 -7.999,-3.585 -7.999,-8.002 V 34.757 c 0,-4.418 3.583,-8.001 7.999,-8.001 4.417,0 8.001,3.583 8.001,8.001 V 48.47 z"
                 id="path3830" />
            </g>
          </g>
        </g>
        <g
           style="fill:#ffffff;fill-opacity:1;stroke:#ffffff;stroke-width:2.78162313;stroke-linecap:round;stroke-linejoin:round;stroke-miterlimit:4;stroke-dasharray:none"
           transform="matrix(1.2582582,0,0,1.2582582,88.650625,627.42137)"
           id="g3832">
          <path
             style="fill:#ffffff;fill-opacity:1;stroke:#ffffff;stroke-width:2.78162313;stroke-linecap:round;stroke-linejoin:round;stroke-miterlimit:4;stroke-dasharray:none"
             inkscape:connector-curvature="0"
             d="M 44.021,53.015 C 41.336,50.516 40.063,48.421 40.078,46.532 L 27.492,46.49 C 13.461,46.544 1.187,69.854 0.723,84.597 c 4.291,0.001 22.51,0.011 42.708,0.015 l -3.446,-4.077 4.036,-27.52 z"
             id="path3834" />
          <path
             style="fill:#ffffff;fill-opacity:1;stroke:#ffffff;stroke-width:2.78162313;stroke-linecap:round;stroke-linejoin:round;stroke-miterlimit:4;stroke-dasharray:none"
             inkscape:connector-curvature="0"
             d="M 85.318,53.255 C 80.935,48.866 76.363,46.64 71.728,46.64 L 59.391,46.598 c -0.016,1.871 -1.29,3.944 -3.944,6.417 l 4.035,27.521 -3.447,4.078 C 73.056,84.615 89.747,84.611 99.276,84.597 98.934,75.731 93.667,61.617 85.318,53.255 z"
             id="path3836" />
          <path
             style="fill:#ffffff;fill-opacity:1;stroke:#ffffff;stroke-width:2.78162313;stroke-linecap:round;stroke-linejoin:round;stroke-miterlimit:4;stroke-dasharray:none"
             inkscape:connector-curvature="0"
             d="m 49.622,38.711 0.106,0 0.119,0 c 10.948,0 19.895,-9.19 19.94,-20.487 C 69.74,6.982 60.742,-2.208 49.729,-2.251 44.385,-2.23 39.354,-0.114 35.574,3.707 c -3.836,3.876 -5.929,9.03 -5.894,14.513 -0.036,5.566 2.067,10.761 5.922,14.64 3.748,3.774 8.728,5.851 14.02,5.851 z"
             id="path3838" />
          <path
             style="fill:#ffffff;fill-opacity:1;stroke:#ffffff;stroke-width:2.78162313;stroke-linecap:round;stroke-linejoin:round;stroke-miterlimit:4;stroke-dasharray:none"
             inkscape:connector-curvature="0"
             d="m 52.207,50.882 c 3.057,-2.678 3.392,-3.976 3.423,-4.297 0.006,-0.054 0.003,-0.082 0.003,-0.084 -0.056,-0.283 -0.267,-0.574 -0.576,-0.857 -0.372,-0.338 -0.895,-0.663 -1.507,-0.943 -1.133,-0.52 -2.554,-0.88 -3.817,-0.88 -1.239,0 -2.634,0.35 -3.757,0.855 -0.613,0.274 -1.143,0.596 -1.525,0.932 -0.334,0.293 -0.558,0.598 -0.616,0.894 0,0 -10e-4,0.018 0,0.044 0.009,0.235 0.22,1.528 3.427,4.337 l 0.77,0.674 -4.085,27.847 4.403,5.211 0.794,0.938 0.591,0.701 0.592,-0.7 0.793,-0.938 4.404,-5.21 -4.084,-27.849 0.767,-0.675 z"
             id="path3840" />
        </g>
      </g>
      <g
         style="fill:#ffffff;stroke:none;filter:url(#filter4164)"
         id="g4012"
         transform="translate(-31.719986,-497.01336)">
        <g
           style="fill:#ffffff;stroke:none"
           transform="matrix(1.9950671,0,0,1.9950671,380.0128,582.49345)"
           id="g4014">
          <g
             style="fill:#ffffff;stroke:none"
             id="g4016" />
          <g
             style="fill:#ffffff;stroke:none"
             id="g4018">
            <path
               sodipodi:nodetypes="cscsscsscsccscsccscsscsscscsssscsscsssscsssscscsssccsscsscsscsscssscsscsscsscssscsscsscsscs"
               style="fill:#ffffff;stroke:none"
               inkscape:connector-curvature="0"
               d="m 79.185,38.336 c 1.429,-1.658 2.299,-3.811 2.299,-6.166 0,-0.09 -0.018,-0.172 -0.026,-0.26 0.009,-0.088 0.027,-0.176 0.027,-0.268 0,-5.219 -4.245,-9.465 -9.466,-9.465 -0.078,0 -0.152,0.018 -0.23,0.023 -0.077,-0.006 -0.151,-0.023 -0.23,-0.023 -5.219,0 -9.465,4.246 -9.465,9.465 0,0.09 0.02,0.176 0.027,0.262 -0.009,0.09 -0.027,0.174 -0.027,0.266 0,2.516 0.992,4.797 2.597,6.494 -0.652,0.312 -1.279,0.672 -1.881,1.064 -1.537,-5.398 -6.5,-9.365 -12.384,-9.365 -0.107,0 -0.209,0.023 -0.314,0.031 -0.105,-0.008 -0.205,-0.031 -0.312,-0.031 -5.864,0 -10.815,3.941 -12.37,9.311 -0.797,-0.514 -1.634,-0.967 -2.517,-1.338 1.428,-1.658 2.299,-3.811 2.299,-6.166 0,-0.09 -0.019,-0.172 -0.027,-0.26 0.009,-0.088 0.027,-0.176 0.027,-0.268 0,-5.219 -4.246,-9.465 -9.465,-9.465 -0.08,0 -0.153,0.018 -0.231,0.023 -0.077,-0.006 -0.151,-0.023 -0.229,-0.023 -5.219,0 -9.465,4.246 -9.465,9.465 0,0.09 0.02,0.176 0.025,0.262 -0.008,0.09 -0.025,0.174 -0.025,0.266 0,2.516 0.992,4.797 2.596,6.494 C 14.853,41.33 11,47.018 11,53.588 c 0,1.684 1.366,3.049 3.05,3.049 1.684,0 3.049,-1.365 3.049,-3.049 0,-5.758 4.686,-2.42322 10.445,-2.42322 0.166,0 0.325,-0.021 0.483,-0.049 0.159,0.027 0.34,0.049 0.506,0.049 5.76,0 10.467,-3.33478 10.467,2.42322 0,0.002 0,0.004 0,0.006 -6,3.891 -11.35,11.186 -11.35,19.529 0,2.293 1.85,4.15 4.141,4.15 2.293,0 4.146,-1.857 4.146,-4.15 0,-7.838 6.376,-6.19722 14.217,-6.19722 0.226,0 0.441,-0.031 0.657,-0.066 0.217,0.035 0.434,0.066 0.66,0.066 7.84,0 14.219,-1.64078 14.219,6.19722 0,2.293 1.857,4.15 4.149,4.15 2.293,0 4.15,-1.857 4.15,-4.15 0,-8.848 -5.139,-16.516 -12.584,-20.193 0.343,-5.451 4.876,-2.767692 10.413,-2.767692 0.165,0 0.325,-0.021 0.483,-0.049 0.159,0.027 0.318,0.049 0.484,0.049 5.76,0 10.445,-2.331308 10.445,3.425692 0,1.684 1.365,3.049 3.049,3.049 1.684,0 3.049,-1.365 3.049,-3.049 C 89.329,46.736 85.139,40.842 79.185,38.336 z M 31.111,32.17 c 0,1.857 -1.511,3.369 -3.366,3.369 -0.08,0 -0.153,0.018 -0.231,0.021 -0.077,-0.004 -0.151,-0.021 -0.229,-0.021 -1.857,0 -3.367,-1.512 -3.367,-3.369 0,-0.09 -0.02,-0.174 -0.027,-0.262 0.008,-0.088 0.027,-0.174 0.027,-0.266 0,-1.857 1.51,-3.367 3.367,-3.367 0.078,0 0.152,-0.018 0.229,-0.023 0.078,0.006 0.151,0.023 0.231,0.023 1.857,0 3.367,1.51 3.367,3.367 0,0.09 0.02,0.174 0.026,0.26 -0.006,0.09 -0.027,0.176 -0.027,0.268 z m 23.897,11.797 c 0,2.527 -2.056,4.586 -4.583,4.586 -0.107,0 -0.209,0.023 -0.314,0.029 -0.105,-0.006 -0.205,-0.029 -0.314,-0.029 -2.527,0 -4.583,-2.059 -4.583,-4.586 0,-0.121 -0.025,-0.236 -0.036,-0.355 0.011,-0.123 0.037,-0.24 0.037,-0.363 0,-2.527 2.055,-4.584 4.584,-4.584 0.107,0 0.207,-0.023 0.312,-0.031 0.105,0.008 0.207,0.031 0.314,0.031 2.527,0 4.584,2.057 4.584,4.584 0,0.121 0.025,0.234 0.035,0.355 -0.01,0.121 -0.036,0.238 -0.036,0.363 z M 75.386,32.17 c 0,1.857 -1.51,3.369 -3.367,3.369 -0.078,0 -0.152,0.018 -0.23,0.021 -0.077,-0.004 -0.151,-0.021 -0.23,-0.021 -1.856,0 -3.367,-1.512 -3.367,-3.369 0,-0.09 -0.018,-0.174 -0.026,-0.262 0.009,-0.088 0.027,-0.174 0.027,-0.266 0,-1.857 1.51,-3.367 3.366,-3.367 0.079,0 0.153,-0.018 0.23,-0.023 0.078,0.006 0.152,0.023 0.23,0.023 1.857,0 3.367,1.51 3.367,3.367 0,0.09 0.02,0.174 0.027,0.26 -0.008,0.09 -0.027,0.176 -0.027,0.268 z"
               id="path4020" />
          </g>
        </g>
        <path
           style="fill:#ffffff;stroke:none"
           inkscape:connector-curvature="0"
           d="m 373.41312,646.15298 c 0,-1.42249 -0.56711,-2.78599 -1.5713,-3.79287 l -12.48335,-12.48333 c -2.09284,-2.09419 -5.49154,-2.09419 -7.58438,0 l -3.02732,3.02732 c -1.95207,-2.65326 -5.08799,-4.38144 -8.63283,-4.38144 h -63.8512 c -5.92325,0 -10.72567,4.80242 -10.72567,10.72567 v 85.13634 c 0,5.92325 4.80242,10.72566 10.72567,10.72566 h 63.8512 c 5.92326,0 10.72567,-4.80241 10.72567,-10.72566 v -53.43662 l 21.00221,-21.0022 c 1.00419,-1.00687 1.5713,-2.37037 1.5713,-3.79287 z m -33.29918,78.23304 h -63.8512 v -85.13634 h 63.8512 v 2.28993 l -8.47327,8.47461 c -0.96126,-0.91302 -2.25504,-1.48014 -3.68288,-1.48014 h -38.21021 c -2.96162,0 -5.36283,2.40121 -5.36283,5.36284 0,2.96162 2.40121,5.36283 5.36283,5.36283 h 32.64894 l -8.04425,8.04426 h -24.60469 c -2.96162,0 -5.36283,2.40121 -5.36283,5.36282 0,2.96163 2.40121,5.36284 5.36283,5.36284 h 13.87902 l -6.12302,6.12301 c -0.44108,0.43976 -0.80174,0.95459 -1.06586,1.51903 l -0.39685,0.84867 h -6.29194 c -2.96163,0 -5.36284,2.40121 -5.36284,5.36283 0,2.96163 2.40121,5.36284 5.36284,5.36284 h 1.27098 l -5.56125,11.88806 c -0.95861,2.04324 -0.53092,4.46858 1.06586,6.06402 1.02833,1.02967 2.39853,1.57132 3.79287,1.57132 0.76822,0 1.54449,-0.16491 2.27116,-0.50545 l 23.4624,-10.97906 c 0.56443,-0.26412 1.07927,-0.62477 1.51902,-1.06587 l 6.97302,-6.97302 h 3.41613 c 2.96163,0 5.36279,-2.40121 5.36279,-5.36284 0,-0.97872 -0.28155,-1.88503 -0.74007,-2.67471 l 7.53345,-7.53479 v 42.71231 z m -29.46336,-28.41767 -9.20665,4.30904 4.30903,-9.20664 37.57198,-37.57337 4.89896,4.89762 -37.57332,37.57335 z m 45.15636,-45.15774 -4.89895,-4.89895 4.66031,-4.65897 4.89759,4.89895 -4.65895,4.65897 z"
           id="path4022" />
        <g
           style="fill:#ffffff;stroke:none"
           transform="matrix(1.2162619,0,0,1.2162619,582.36236,623.26998)"
           id="g4024">
          <g
             style="fill:#ffffff;stroke:none"
             id="g4026" />
          <g
             style="fill:#ffffff;stroke:none"
             id="g4028">
            <g
               style="fill:#ffffff;stroke:none"
               id="g4030">
              <path
                 style="fill:#ffffff;stroke:none"
                 inkscape:connector-curvature="0"
                 d="M 95.4,66.265 C 87.073,51.847 73.444,28.238 65.117,13.822 56.791,-0.606 43.162,-0.606 34.834,13.822 26.512,28.238 12.882,51.847 4.554,66.265 -3.772,80.691 3.039,92.49 19.696,92.49 c 16.655,0 43.907,0 60.56,0 16.655,0 23.471,-11.799 15.144,-26.225 z M 49.574,76.562 c -4.262,0 -7.712,-3.453 -7.712,-7.714 0,-4.262 3.45,-7.716 7.712,-7.716 4.263,0 7.715,3.454 7.715,7.716 0,4.26 -3.452,7.714 -7.715,7.714 z M 57.575,48.47 c 0,4.417 -3.584,8.002 -8.001,8.002 -4.416,0 -7.999,-3.585 -7.999,-8.002 V 34.757 c 0,-4.418 3.583,-8.001 7.999,-8.001 4.417,0 8.001,3.583 8.001,8.001 V 48.47 z"
                 id="path4032" />
            </g>
          </g>
        </g>
        <g
           style="fill:#ffffff;stroke:none"
           transform="translate(-7.0710678,5.0507627)"
           id="g4034">
          <path
             inkscape:connector-curvature="0"
             style="color:#000000;fill:#ffffff;fill-opacity:1;fill-rule:nonzero;stroke:none;stroke-width:3.5;marker:none;visibility:visible;display:inline;overflow:visible;enable-background:accumulate"
             d="m 76.25,98.78125 c -10.15279,0 -18.375,8.22634 -18.375,18.375 0,10.14869 8.2225,18.375 18.375,18.375 10.14429,0 18.375,-8.22631 18.375,-18.375 0,-10.14866 -8.23042,-18.375 -18.375,-18.375 z m -29.03125,41.125 c -3.79467,0 -7.00771,2.33872 -8.34375,5.65625 -0.41626,0.9057 -0.5625,1.87664 -0.5625,2.9375 l 0,57.8125 14.3125,0 0,-46.1875 1.46875,0 0,46.1875 29.125,0 L 83.4375,194.46875 76.25,206 68.71875,193.8125 74.6875,153 l -5.96875,-10.40625 15.125,0 L 77.8125,153 83.5,191.40625 84.03125,160.1875 a 2.50025,2.50025 0 0 1 0,-0.0937 c 0.03277,-0.64733 0.1348,-0.87518 0.1875,-1.03125 0.0044,-0.0441 0.02625,-0.0811 0.03125,-0.125 0.0039,-0.0117 0.03039,-0.121 0.03125,-0.125 0.65218,-5.19319 5.09585,-9.1875 10.4375,-9.1875 l 8.4375,0 c -1.16897,-0.65929 -2.37384,-1.37393 -3.5625,-2.5 -1.830425,-1.73403 -3.500223,-4.12082 -4.46875,-7.21875 l -47.90625,0 z m 60.28125,0.1875 c 1.62347,2.50966 3.99402,4.4584 6.8125,5.5625 -0.0134,-0.0302 -0.0174,-0.0637 -0.0312,-0.0937 -1.13154,-2.82654 -3.70201,-4.90718 -6.78125,-5.46875 z m 3.0625,9.1875 A 2.50025,2.50025 0 0 1 110.5,149.625 l 0.84375,0 c -0.25885,-0.12223 -0.52881,-0.21052 -0.78125,-0.34375 z M 94.71875,154.625 c -2.96452,0 -5.21625,2.09802 -5.5,4.9375 a 2.50025,2.50025 0 0 1 -0.0625,0.25 c -0.118,0.57905 -0.133,0.6865 -0.125,0.53125 l -0.8125,45.96875 4.8125,0 3.625,-31.1875 a 2.50025,2.50025 0 0 1 2.25,-2.15625 l 0,-12.84375 1.71875,0 0,13.3125 a 2.50025,2.50025 0 0 1 1,1.71875 c 0.67755,6.55709 1.25,14.09921 1.25,20.0625 0,4.51464 -0.35543,7.9991 -0.8125,11.09375 l 12.875,0 0,-32.6875 -7.3125,-17.34375 a 2.50025,2.50025 0 0 1 -0.0937,-1.65625 l -1.125,0 -11.6875,0 z m 19,3.1875 1.21875,2.90625 0,-2.90625 -1.21875,0 z"
             transform="translate(72.340226,522.89135)"
             id="path4036" />
          <g
             id="g4038"
             transform="translate(-37.152288,-1.0101526)"
             style="color:#000000;fill:#ffffff;fill-opacity:1;fill-rule:nonzero;stroke:none;stroke-width:3.5;marker:none;visibility:visible;display:inline;overflow:visible;enable-background:accumulate">
            <path
               style="color:#000000;fill:#ffffff;fill-opacity:1;fill-rule:nonzero;stroke:none;stroke-width:3.5;marker:none;visibility:visible;display:inline;overflow:visible;enable-background:accumulate"
               inkscape:connector-curvature="0"
               id="path4040"
               d="m 214.05499,659.88569 c -0.2942,1.34684 -0.25621,2.68113 -0.0796,3.89332 2.77362,5.49015 8.45083,9.262 15.01913,9.262 6.97138,0 12.95157,-4.24021 15.50213,-10.28305 0.35304,-3.13486 0.16801,-6.75534 -1.2608,-10.53946 -0.75202,-1.97917 -1.52103,-5.08064 -1.83219,-6.38972 -1.09247,1.10739 -2.32809,2.2019 -3.78648,3.11814 -5.34527,3.36173 -16.77551,6.20472 -17.25882,6.32445 l -0.69317,0.17037 1.93319,-5.1939 c -1.8155,0.88871 -6.22372,3.62838 -7.54335,9.63785 z" />
            <path
               style="color:#000000;fill:#ffffff;fill-opacity:1;fill-rule:nonzero;stroke:none;stroke-width:3.5;marker:none;visibility:visible;display:inline;overflow:visible;enable-background:accumulate"
               inkscape:connector-curvature="0"
               id="path4042"
               d="m 217.54726,673.04101 c -0.64284,-0.88055 -1.65568,-2.44578 -2.68521,-4.49869 -0.0759,-0.0652 -6.86659,-6.60196 -6.82883,-17.31559 0,-1.47304 0.23134,-2.86819 0.56321,-4.22119 -1.29854,2.34273 -2.35325,5.75303 -2.35325,10.78743 0,11.00579 8.35832,14.39678 11.30408,15.24804 z" />
            <path
               style="color:#000000;fill:#ffffff;fill-opacity:1;fill-rule:nonzero;stroke:none;stroke-width:3.5;marker:none;visibility:visible;display:inline;overflow:visible;enable-background:accumulate"
               inkscape:connector-curvature="0"
               id="path4044"
               d="m 244.10992,651.9076 c 3.50047,9.23449 -0.13425,17.59076 -1.57986,20.34331 3.15593,-1.43321 12.5353,-7.09987 8.88758,-22.66115 -1.18059,-5.04463 -4.39124,-8.63553 -5.38712,-9.65894 l -3.82832,5.22554 c 0.18921,0.83428 1.07988,4.57655 1.90772,6.75124 z" />
            <g
               id="g4046"
               style="color:#000000;fill:#ffffff;fill-opacity:1;fill-rule:nonzero;stroke:none;stroke-width:3.5;marker:none;visibility:visible;display:inline;overflow:visible;enable-background:accumulate">
              <path
                 style="color:#000000;fill:#ffffff;fill-opacity:1;fill-rule:nonzero;stroke:none;stroke-width:3.5;marker:none;visibility:visible;display:inline;overflow:visible;enable-background:accumulate"
                 d="m 204.21757,676.02357 c -4.19806,0 -7.60684,3.11638 -8.0146,7.19678 -0.0631,0.31087 -0.14708,0.57406 -0.16356,0.89957 l -0.8996,50.2139 9.40488,0 4.08908,-35.00252 c 0.67239,6.50712 1.22673,13.99391 1.22673,19.79114 0,6.58961 -0.71097,11.15653 -1.47207,15.21138 l 41.95396,0 c -0.82902,-4.89112 -1.71742,-9.78582 -1.71742,-15.21138 0,-4.6582 0.65905,-12.89249 1.39029,-20.11827 l 3.84374,35.32965 9.48666,0 -0.57247,-50.2139 c 0,-0.0356 0,-0.0437 0,-0.0816 0,-4.47117 -3.62932,-8.01457 -8.09638,-8.01457 l -12.10367,0 -26.66081,0 -11.69476,0 z m 15.21135,3.18948 19.62761,0 -9.81379,23.30775 -9.81382,-23.30775 z"
                 id="path4048"
                 inkscape:connector-curvature="0" />
              <path
                 d="m 213.50055,659.73435 c 1.76078,-8.00939 8.74914,-10.50992 8.82467,-10.53507 l 0.7482,-0.26066 -2.01719,5.43164 c 2.6012,-0.67857 11.84621,-3.22327 16.35074,-6.05338 4.63949,-2.91444 7.53898,-7.78255 8.13995,-8.86476 -0.90773,-1.05911 -5.86631,-6.30776 -14.92222,-6.30776 -2.61819,0 -5.3874,0.44115 -8.22396,1.30497 -8.4889,2.59069 -13.57362,8.88146 -13.60702,16.83026 -0.0262,7.3247 3.23146,12.63017 5.17724,15.14091 -0.52924,-1.67735 -1.02103,-4.16498 -0.47041,-6.68626 z"
                 id="path4050"
                 inkscape:connector-curvature="0"
                 style="color:#000000;fill:#ffffff;fill-opacity:1;fill-rule:nonzero;stroke:none;stroke-width:3.5;marker:none;visibility:visible;display:inline;overflow:visible;enable-background:accumulate" />
            </g>
          </g>
        </g>
      </g>
      <g
         id="text2985"
         style="font-size:82.40179443px;font-style:normal;font-variant:normal;font-weight:normal;font-stretch:normal;line-height:125%;letter-spacing:0px;word-spacing:0px;fill:#ffffff;fill-opacity:1;stroke:#000000;stroke-width:3.5;stroke-linecap:round;stroke-linejoin:round;stroke-miterlimit:4;font-family:Verdana;-inkscape-font-specification:Verdana">
        <path
           id="path14076"
           style="font-weight:bold;fill:#ffffff;stroke:#000000;font-family:Exo;-inkscape-font-specification:Exo"
           d="m 73.58909,111.93061 25.630747,0 c 7.314053,-0.13648 12.642293,-2.90205 15.984713,-8.29672 3.34233,-5.394665 4.98931,-12.599571 4.94095,-21.614746 0.0631,-5.079742 -0.4592,-9.921238 -1.56698,-14.524503 -1.10788,-4.603176 -3.18026,-8.37621 -6.21714,-11.319115 -3.03696,-2.942793 -7.41747,-4.463542 -13.141541,-4.562252 l -25.630749,0 z m 11.536103,-10.28773 0,-39.853116 13.188238,0 c 3.242689,-0.169129 5.762609,1.171427 7.559749,4.021671 1.79707,2.850337 2.70914,8.225434 2.73622,16.125309 0.0383,6.115102 -0.74293,10.912022 -2.34378,14.390772 -1.60093,3.478781 -4.25166,5.250564 -7.952189,5.315364 z"
           inkscape:connector-curvature="0" />
        <path
           id="path14078"
           style="font-weight:bold;fill:#ffffff;stroke:#000000;font-family:Exo;-inkscape-font-specification:Exo"
           d="m 127.92149,100.07315 c 0.24401,5.38609 1.89252,8.82392 4.94554,10.31348 3.05299,1.48956 6.04638,2.08662 8.98018,1.79118 0.23099,-0.006 2.10733,-0.0796 5.62904,-0.22218 3.52166,-0.14257 7.30268,-0.32039 11.34307,-0.53346 4.04032,-0.21308 6.954,-0.42813 8.74104,-0.64517 l 0,-9.45549 -22.99392,0 c -1.25603,0.0944 -2.40157,-0.0738 -3.43663,-0.5047 -1.03509,-0.43088 -1.59249,-1.690921 -1.67222,-3.780133 l 0,-9.410162 24.35354,-0.778686 0,-9.484326 -24.35354,-0.869329 0,-9.410164 c -0.0893,-1.165583 0.0892,-2.212759 0.53561,-3.141531 0.44631,-0.928676 1.69606,-1.419646 3.74923,-1.47291 l 23.81793,0 0,-9.537884 c -1.99696,-0.244497 -5.07585,-0.465859 -9.23666,-0.664087 -4.16089,-0.198109 -8.02716,-0.355994 -11.59882,-0.473654 -3.57171,-0.117539 -5.47227,-0.177763 -5.70167,-0.18067 -3.03466,-0.18092 -5.92934,0.58429 -8.68407,2.295633 -2.75473,1.711458 -4.22728,5.121214 -4.41765,10.229278 z"
           inkscape:connector-curvature="0" />
        <path
           id="path14080"
           style="font-weight:bold;fill:#ffffff;stroke:#000000;font-family:Exo;-inkscape-font-specification:Exo"
           d="m 174.82098,100.18851 c 0.11286,4.56294 1.38578,7.68387 3.81876,9.36278 2.43295,1.67891 5.34873,2.47202 8.74735,2.37932 l 24.76142,0 0,-10.62969 -20.68258,0 c -1.25835,0.0944 -2.40853,-0.0738 -3.45054,-0.50471 -1.04204,-0.43088 -1.59481,-1.69092 -1.65831,-3.780132 l 0,-45.402804 -11.5361,0 z"
           inkscape:connector-curvature="0" />
        <path
           id="path14082"
           style="font-weight:bold;fill:#ffffff;stroke:#000000;font-family:Exo;-inkscape-font-specification:Exo"
           d="m 219.2407,111.93061 11.5361,0 0,-60.317336 -11.5361,0 z"
           inkscape:connector-curvature="0" />
        <path
           id="path14084"
           style="font-weight:bold;fill:#ffffff;stroke:#000000;font-family:Exo;-inkscape-font-specification:Exo"
           d="m 239.35832,111.93061 25.09514,0 c 6.29143,-0.0373 10.83651,-1.5881 13.63526,-4.65255 2.79866,-3.06444 4.17132,-7.418974 4.11798,-13.063607 -0.07,-3.865604 -0.97864,-6.97623 -2.72592,-9.331886 -1.74737,-2.355601 -3.91365,-3.777012 -6.49884,-4.264235 2.92355,-0.666042 5.0373,-2.257062 6.34125,-4.773064 1.30386,-2.51593 1.94366,-5.223478 1.91942,-8.122651 0.0712,-4.460065 -1.2043,-8.227493 -3.82649,-11.302293 -2.62227,-3.074689 -7.01869,-4.677038 -13.18926,-4.80705 l -24.86854,0 z m 11.57318,-10.17649 0,-16.521347 13.06876,0 c 2.41388,0.07599 4.13588,0.932442 5.16601,2.569357 1.03006,1.636965 1.5315,3.598616 1.50433,5.88496 -0.0591,3.139052 -0.73306,5.284386 -2.02191,6.43601 -1.28892,1.15165 -2.8384,1.69532 -4.64843,1.63102 z m 0,-26.244634 0,-13.719722 12.61555,0 c 1.54396,-0.06252 2.9664,0.386046 4.26733,1.345708 1.30087,0.959759 1.992,2.806049 2.07341,5.538874 -0.005,2.17027 -0.54465,3.848152 -1.61763,5.033654 -1.07305,1.185578 -2.64741,1.786073 -4.72311,1.801486 z"
           inkscape:connector-curvature="0" />
        <path
           id="path14086"
           style="font-weight:bold;fill:#ffffff;stroke:#000000;font-family:Exo;-inkscape-font-specification:Exo"
           d="m 288.86249,100.07315 c 0.24401,5.38609 1.89252,8.82392 4.94553,10.31348 3.053,1.48956 6.04639,2.08662 8.98019,1.79118 0.23098,-0.006 2.10733,-0.0796 5.62904,-0.22218 3.52166,-0.14257 7.30268,-0.32039 11.34307,-0.53346 4.04032,-0.21308 6.954,-0.42813 8.74104,-0.64517 l 0,-9.45549 -22.99392,0 c -1.25604,0.0944 -2.40158,-0.0738 -3.43663,-0.5047 -1.03509,-0.43088 -1.5925,-1.690921 -1.67222,-3.780133 l 0,-9.410162 24.35354,-0.778686 0,-9.484326 -24.35354,-0.869329 0,-9.410164 c -0.0893,-1.165583 0.0892,-2.212759 0.5356,-3.141531 0.44632,-0.928676 1.69607,-1.419646 3.74924,-1.47291 l 23.81793,0 0,-9.537884 c -1.99696,-0.244497 -5.07585,-0.465859 -9.23667,-0.664087 -4.16088,-0.198109 -8.02715,-0.355994 -11.59881,-0.473654 -3.57172,-0.117539 -5.47227,-0.177763 -5.70167,-0.18067 -3.03466,-0.18092 -5.92935,0.58429 -8.68407,2.295633 -2.75474,1.711458 -4.22729,5.121214 -4.41765,10.229278 z"
           inkscape:connector-curvature="0" />
        <path
           id="path14088"
           style="font-weight:bold;fill:#ffffff;stroke:#000000;font-family:Exo;-inkscape-font-specification:Exo"
           d="m 334.97504,111.93061 11.53611,0 0,-23.978613 10.13529,1.15361 9.97049,22.825003 12.98223,0 -11.42074,-23.752012 c 1.86556,-0.268124 3.88489,-1.493148 6.058,-3.675074 2.17301,-2.181872 3.35495,-6.875962 3.54581,-14.082284 -0.0958,-7.085213 -1.65536,-12.020326 -4.67882,-14.805353 -3.02355,-2.784915 -6.93672,-4.119118 -11.73953,-4.002613 l -26.38884,0 z m 11.58143,-33.042693 0,-17.015752 13.6744,0 c 1.83338,-0.07196 3.27539,0.496429 4.32603,1.705181 1.05058,1.208849 1.58618,3.490145 1.60682,6.843894 0.004,3.541469 -0.48286,5.863622 -1.46004,6.966468 -0.97726,1.102915 -2.46819,1.602984 -4.47281,1.500209 z"
           inkscape:connector-curvature="0" />
        <path
           id="path14090"
           style="font-weight:bold;fill:#ffffff;stroke:#000000;font-family:Exo;-inkscape-font-specification:Exo"
           d="m 383.61042,111.93061 12.39307,0 4.35076,-13.365399 19.75558,0 4.28484,13.365399 12.28183,0 -19.59078,-60.317336 -13.12231,0 z m 19.7391,-23.587211 7.25127,-21.52719 6.77745,21.52719 z"
           inkscape:connector-curvature="0" />
        <path
           id="path14092"
           style="font-weight:bold;fill:#ffffff;stroke:#000000;font-family:Exo;-inkscape-font-specification:Exo"
           d="m 440.35694,62.242968 16.27414,0 0,49.687642 11.53611,0 0,-49.687642 16.76854,0 0,-10.629694 -44.57879,0 z"
           inkscape:connector-curvature="0" />
        <path
           id="path14094"
           style="font-weight:bold;fill:#ffffff;stroke:#000000;font-family:Exo;-inkscape-font-specification:Exo"
           d="m 511.30869,46.257226 7.49847,0 10.05289,-11.412502 -10.09409,0 z m -20.51368,35.92672 c 0.0249,9.009675 1.02299,15.673954 2.99436,19.992854 1.97135,4.31893 4.76672,7.11343 8.38611,8.38351 3.61936,1.27009 7.9135,1.83673 12.88245,1.6999 4.96796,0.12157 9.25569,-0.5061 12.8632,-1.88301 3.60743,-1.3769 6.39089,-4.23244 8.35039,-8.56662 1.95941,-4.334164 2.95111,-10.876368 2.97512,-19.626634 -0.0347,-9.280218 -1.06912,-16.144905 -3.1033,-20.594082 -2.03427,-4.449077 -4.86046,-7.328013 -8.47857,-8.636818 -3.61819,-1.308688 -7.82046,-1.892612 -12.60684,-1.751776 -4.65765,-0.140835 -8.80531,0.443091 -12.44298,1.751777 -3.6377,1.308804 -6.50632,4.18774 -8.60585,8.636817 -2.09955,4.449177 -3.17091,11.313864 -3.21409,20.594082 z m 11.53611,0 c -0.008,-6.295483 0.43103,-10.898729 1.31734,-13.809754 0.88628,-2.910938 2.26812,-4.755288 4.14553,-5.533057 1.87737,-0.77767 4.29868,-1.114394 7.26394,-1.01017 3.0421,-0.09667 5.49362,0.27027 7.35456,1.100816 1.86087,0.830643 3.21249,2.705209 4.05487,5.623701 0.8423,2.91858 1.25669,7.461396 1.24318,13.628464 0.0779,7.923016 -0.82061,13.196313 -2.69553,15.819904 -1.87499,2.62362 -5.19401,3.83251 -9.95708,3.62667 -5.0366,0.21871 -8.44525,-0.96443 -10.22595,-3.549419 -1.78073,-2.584965 -2.61435,-7.884012 -2.50086,-15.897155 z"
           inkscape:connector-curvature="0" />
        <path
           id="path14096"
           style="font-weight:bold;fill:#ffffff;stroke:#000000;font-family:Exo;-inkscape-font-specification:Exo"
           d="m 546.2906,111.93061 11.5361,0 0,-23.978613 10.13529,1.15361 9.97049,22.825003 12.98223,0 -11.42074,-23.752012 c 1.86557,-0.268124 3.8849,-1.493148 6.058,-3.675074 2.17302,-2.181872 3.35495,-6.875962 3.54581,-14.082284 -0.0957,-7.085213 -1.65536,-12.020326 -4.67882,-14.805353 -3.02355,-2.784915 -6.93672,-4.119118 -11.73953,-4.002613 l -26.38883,0 z m 11.58142,-33.042693 0,-17.015752 13.6744,0 c 1.83338,-0.07196 3.27539,0.496429 4.32604,1.705181 1.05057,1.208849 1.58617,3.490145 1.60681,6.843894 0.004,3.541469 -0.48285,5.863622 -1.46004,6.966468 -0.97726,1.102915 -2.46819,1.602984 -4.47281,1.500209 z"
           inkscape:connector-curvature="0" />
        <path
           id="path14098"
           style="font-weight:bold;fill:#ffffff;stroke:#000000;font-family:Exo;-inkscape-font-specification:Exo"
           d="m 597.13017,111.93061 11.5361,0 0,-60.317336 -11.5361,0 z"
           inkscape:connector-curvature="0" />
        <path
           id="path14100"
           style="font-weight:bold;fill:#ffffff;stroke:#000000;font-family:Exo;-inkscape-font-specification:Exo"
           d="m 616.32901,82.183946 c 0.0249,9.009675 1.02299,15.673954 2.99435,19.992854 1.97136,4.31893 4.76672,7.11343 8.38611,8.38351 3.61936,1.27009 7.9135,1.83673 12.88244,1.6999 4.96797,0.12157 9.2557,-0.5061 12.86321,-1.88301 3.60743,-1.3769 6.39089,-4.23244 8.3504,-8.56662 1.9594,-4.334164 2.95111,-10.876368 2.97512,-19.626634 -0.0347,-9.280218 -1.06912,-16.144905 -3.1033,-20.594082 -2.03428,-4.449077 -4.86046,-7.328013 -8.47858,-8.636818 -3.61819,-1.308688 -7.82047,-1.892612 -12.60685,-1.751776 -4.65765,-0.140835 -8.8053,0.443091 -12.44297,1.751777 -3.6377,1.308804 -6.50631,4.18774 -8.60584,8.636817 -2.09955,4.449177 -3.17091,11.313864 -3.21409,20.594082 z m 11.53611,0 c -0.008,-6.295483 0.43103,-10.898729 1.31734,-13.809754 0.88627,-2.910938 2.26811,-4.755288 4.14552,-5.533057 1.87736,-0.77767 4.29867,-1.114394 7.26393,-1.01017 3.04211,-0.09667 5.49363,0.270267 7.35457,1.100811 1.86087,0.830642 3.21249,2.705206 4.05488,5.623698 0.8423,2.918578 1.2567,7.461398 1.24318,13.628472 0.0779,7.923023 -0.82061,13.196321 -2.69553,15.819909 -1.875,2.623615 -5.19403,3.832505 -9.9571,3.626665 -5.0366,0.21871 -8.44524,-0.96442 -10.22593,-3.549414 -1.78073,-2.584964 -2.61435,-7.884012 -2.50086,-15.89716 z"
           inkscape:connector-curvature="0" />
      </g>
      <g
         transform="translate(-31.719986,-497.01336)"
         id="g3991">
        <g
           id="g3013"
           transform="matrix(1.9950671,0,0,1.9950671,380.0128,582.49345)"
           style="fill:#729fcf;stroke:#ffffff;stroke-width:1.75432694;stroke-linecap:round;stroke-linejoin:round;stroke-miterlimit:4;stroke-dasharray:none">
          <g
             id="Captions"
             style="fill:#729fcf;stroke:#ffffff;stroke-width:1.75432694;stroke-linecap:round;stroke-linejoin:round;stroke-miterlimit:4;stroke-dasharray:none" />
          <g
             id="Your_Icon"
             style="fill:#729fcf;stroke:#ffffff;stroke-width:1.75432694;stroke-linecap:round;stroke-linejoin:round;stroke-miterlimit:4;stroke-dasharray:none">
            <path
               id="path3005"
               d="m 79.185,38.336 c 1.429,-1.658 2.299,-3.811 2.299,-6.166 0,-0.09 -0.018,-0.172 -0.026,-0.26 0.009,-0.088 0.027,-0.176 0.027,-0.268 0,-5.219 -4.245,-9.465 -9.466,-9.465 -0.078,0 -0.152,0.018 -0.23,0.023 -0.077,-0.006 -0.151,-0.023 -0.23,-0.023 -5.219,0 -9.465,4.246 -9.465,9.465 0,0.09 0.02,0.176 0.027,0.262 -0.009,0.09 -0.027,0.174 -0.027,0.266 0,2.516 0.992,4.797 2.597,6.494 -0.652,0.312 -1.279,0.672 -1.881,1.064 -1.537,-5.398 -6.5,-9.365 -12.384,-9.365 -0.107,0 -0.209,0.023 -0.314,0.031 -0.105,-0.008 -0.205,-0.031 -0.312,-0.031 -5.864,0 -10.815,3.941 -12.37,9.311 -0.797,-0.514 -1.634,-0.967 -2.517,-1.338 1.428,-1.658 2.299,-3.811 2.299,-6.166 0,-0.09 -0.019,-0.172 -0.027,-0.26 0.009,-0.088 0.027,-0.176 0.027,-0.268 0,-5.219 -4.246,-9.465 -9.465,-9.465 -0.08,0 -0.153,0.018 -0.231,0.023 -0.077,-0.006 -0.151,-0.023 -0.229,-0.023 -5.219,0 -9.465,4.246 -9.465,9.465 0,0.09 0.02,0.176 0.025,0.262 -0.008,0.09 -0.025,0.174 -0.025,0.266 0,2.516 0.992,4.797 2.596,6.494 C 14.853,41.33 11,47.018 11,53.588 c 0,1.684 1.366,3.049 3.05,3.049 1.684,0 3.049,-1.365 3.049,-3.049 0,-5.758 4.686,-2.42322 10.445,-2.42322 0.166,0 0.325,-0.021 0.483,-0.049 0.159,0.027 0.34,0.049 0.506,0.049 5.76,0 10.467,-3.33478 10.467,2.42322 0,0.002 0,0.004 0,0.006 -6,3.891 -11.35,11.186 -11.35,19.529 0,2.293 1.85,4.15 4.141,4.15 2.293,0 4.146,-1.857 4.146,-4.15 0,-7.838 6.376,-6.19722 14.217,-6.19722 0.226,0 0.441,-0.031 0.657,-0.066 0.217,0.035 0.434,0.066 0.66,0.066 7.84,0 14.219,-1.64078 14.219,6.19722 0,2.293 1.857,4.15 4.149,4.15 2.293,0 4.15,-1.857 4.15,-4.15 0,-8.848 -5.139,-16.516 -12.584,-20.193 0.343,-5.451 4.876,-2.767692 10.413,-2.767692 0.165,0 0.325,-0.021 0.483,-0.049 0.159,0.027 0.318,0.049 0.484,0.049 5.76,0 10.445,-2.331308 10.445,3.425692 0,1.684 1.365,3.049 3.049,3.049 1.684,0 3.049,-1.365 3.049,-3.049 C 89.329,46.736 85.139,40.842 79.185,38.336 z M 31.111,32.17 c 0,1.857 -1.511,3.369 -3.366,3.369 -0.08,0 -0.153,0.018 -0.231,0.021 -0.077,-0.004 -0.151,-0.021 -0.229,-0.021 -1.857,0 -3.367,-1.512 -3.367,-3.369 0,-0.09 -0.02,-0.174 -0.027,-0.262 0.008,-0.088 0.027,-0.174 0.027,-0.266 0,-1.857 1.51,-3.367 3.367,-3.367 0.078,0 0.152,-0.018 0.229,-0.023 0.078,0.006 0.151,0.023 0.231,0.023 1.857,0 3.367,1.51 3.367,3.367 0,0.09 0.02,0.174 0.026,0.26 -0.006,0.09 -0.027,0.176 -0.027,0.268 z m 23.897,11.797 c 0,2.527 -2.056,4.586 -4.583,4.586 -0.107,0 -0.209,0.023 -0.314,0.029 -0.105,-0.006 -0.205,-0.029 -0.314,-0.029 -2.527,0 -4.583,-2.059 -4.583,-4.586 0,-0.121 -0.025,-0.236 -0.036,-0.355 0.011,-0.123 0.037,-0.24 0.037,-0.363 0,-2.527 2.055,-4.584 4.584,-4.584 0.107,0 0.207,-0.023 0.312,-0.031 0.105,0.008 0.207,0.031 0.314,0.031 2.527,0 4.584,2.057 4.584,4.584 0,0.121 0.025,0.234 0.035,0.355 -0.01,0.121 -0.036,0.238 -0.036,0.363 z M 75.386,32.17 c 0,1.857 -1.51,3.369 -3.367,3.369 -0.078,0 -0.152,0.018 -0.23,0.021 -0.077,-0.004 -0.151,-0.021 -0.23,-0.021 -1.856,0 -3.367,-1.512 -3.367,-3.369 0,-0.09 -0.018,-0.174 -0.026,-0.262 0.009,-0.088 0.027,-0.174 0.027,-0.266 0,-1.857 1.51,-3.367 3.366,-3.367 0.079,0 0.153,-0.018 0.23,-0.023 0.078,0.006 0.152,0.023 0.23,0.023 1.857,0 3.367,1.51 3.367,3.367 0,0.09 0.02,0.174 0.027,0.26 -0.008,0.09 -0.027,0.176 -0.027,0.268 z"
               inkscape:connector-curvature="0"
               style="fill:#729fcf;stroke:#ffffff;stroke-width:1.75432694;stroke-linecap:round;stroke-linejoin:round;stroke-miterlimit:4;stroke-dasharray:none"
               sodipodi:nodetypes="cscsscsscsccscsccscsscsscscsssscsscsssscsssscscsssccsscsscsscsscssscsscsscsscssscsscsscsscs" />
          </g>
        </g>
        <path
           id="path3028"
           d="m 373.41312,646.15298 c 0,-1.42249 -0.56711,-2.78599 -1.5713,-3.79287 l -12.48335,-12.48333 c -2.09284,-2.09419 -5.49154,-2.09419 -7.58438,0 l -3.02732,3.02732 c -1.95207,-2.65326 -5.08799,-4.38144 -8.63283,-4.38144 h -63.8512 c -5.92325,0 -10.72567,4.80242 -10.72567,10.72567 v 85.13634 c 0,5.92325 4.80242,10.72566 10.72567,10.72566 h 63.8512 c 5.92326,0 10.72567,-4.80241 10.72567,-10.72566 v -53.43662 l 21.00221,-21.0022 c 1.00419,-1.00687 1.5713,-2.37037 1.5713,-3.79287 z m -33.29918,78.23304 h -63.8512 v -85.13634 h 63.8512 v 2.28993 l -8.47327,8.47461 c -0.96126,-0.91302 -2.25504,-1.48014 -3.68288,-1.48014 h -38.21021 c -2.96162,0 -5.36283,2.40121 -5.36283,5.36284 0,2.96162 2.40121,5.36283 5.36283,5.36283 h 32.64894 l -8.04425,8.04426 h -24.60469 c -2.96162,0 -5.36283,2.40121 -5.36283,5.36282 0,2.96163 2.40121,5.36284 5.36283,5.36284 h 13.87902 l -6.12302,6.12301 c -0.44108,0.43976 -0.80174,0.95459 -1.06586,1.51903 l -0.39685,0.84867 h -6.29194 c -2.96163,0 -5.36284,2.40121 -5.36284,5.36283 0,2.96163 2.40121,5.36284 5.36284,5.36284 h 1.27098 l -5.56125,11.88806 c -0.95861,2.04324 -0.53092,4.46858 1.06586,6.06402 1.02833,1.02967 2.39853,1.57132 3.79287,1.57132 0.76822,0 1.54449,-0.16491 2.27116,-0.50545 l 23.4624,-10.97906 c 0.56443,-0.26412 1.07927,-0.62477 1.51902,-1.06587 l 6.97302,-6.97302 h 3.41613 c 2.96163,0 5.36279,-2.40121 5.36279,-5.36284 0,-0.97872 -0.28155,-1.88503 -0.74007,-2.67471 l 7.53345,-7.53479 v 42.71231 z m -29.46336,-28.41767 -9.20665,4.30904 4.30903,-9.20664 37.57198,-37.57337 4.89896,4.89762 -37.57332,37.57335 z m 45.15636,-45.15774 -4.89895,-4.89895 4.66031,-4.65897 4.89759,4.89895 -4.65895,4.65897 z"
           inkscape:connector-curvature="0"
           style="fill:#8ae234;stroke:#ffffff;stroke-width:3.5;stroke-linecap:round;stroke-linejoin:round;stroke-miterlimit:4;stroke-dasharray:none" />
        <g
           id="g3065"
           transform="matrix(1.2162619,0,0,1.2162619,582.36236,623.26998)"
           style="fill:#ef2929;stroke:#ffffff;stroke-width:2.87766957;stroke-linecap:round;stroke-linejoin:round;stroke-miterlimit:4;stroke-dasharray:none">
          <g
             id="Captions-1"
             style="fill:#ef2929;stroke:#ffffff;stroke-width:2.87766957;stroke-linecap:round;stroke-linejoin:round;stroke-miterlimit:4;stroke-dasharray:none" />
          <g
             id="Your_Icon-7"
             style="fill:#ef2929;stroke:#ffffff;stroke-width:2.87766957;stroke-linecap:round;stroke-linejoin:round;stroke-miterlimit:4;stroke-dasharray:none">
            <g
               id="g3055"
               style="fill:#ef2929;stroke:#ffffff;stroke-width:2.87766957;stroke-linecap:round;stroke-linejoin:round;stroke-miterlimit:4;stroke-dasharray:none">
              <path
                 id="path3057"
                 d="M 95.4,66.265 C 87.073,51.847 73.444,28.238 65.117,13.822 56.791,-0.606 43.162,-0.606 34.834,13.822 26.512,28.238 12.882,51.847 4.554,66.265 -3.772,80.691 3.039,92.49 19.696,92.49 c 16.655,0 43.907,0 60.56,0 16.655,0 23.471,-11.799 15.144,-26.225 z M 49.574,76.562 c -4.262,0 -7.712,-3.453 -7.712,-7.714 0,-4.262 3.45,-7.716 7.712,-7.716 4.263,0 7.715,3.454 7.715,7.716 0,4.26 -3.452,7.714 -7.715,7.714 z M 57.575,48.47 c 0,4.417 -3.584,8.002 -8.001,8.002 -4.416,0 -7.999,-3.585 -7.999,-8.002 V 34.757 c 0,-4.418 3.583,-8.001 7.999,-8.001 4.417,0 8.001,3.583 8.001,8.001 V 48.47 z"
                 inkscape:connector-curvature="0"
                 style="fill:#ef2929;stroke:#ffffff;stroke-width:2.87766957;stroke-linecap:round;stroke-linejoin:round;stroke-miterlimit:4;stroke-dasharray:none" />
            </g>
          </g>
        </g>
        <g
           id="g3981"
           transform="translate(-7.0710678,5.0507627)">
          <path
             id="path9"
             transform="translate(72.340226,522.89135)"
             d="m 76.25,98.78125 c -10.15279,0 -18.375,8.22634 -18.375,18.375 0,10.14869 8.2225,18.375 18.375,18.375 10.14429,0 18.375,-8.22631 18.375,-18.375 0,-10.14866 -8.23042,-18.375 -18.375,-18.375 z m -29.03125,41.125 c -3.79467,0 -7.00771,2.33872 -8.34375,5.65625 -0.41626,0.9057 -0.5625,1.87664 -0.5625,2.9375 l 0,57.8125 14.3125,0 0,-46.1875 1.46875,0 0,46.1875 29.125,0 L 83.4375,194.46875 76.25,206 68.71875,193.8125 74.6875,153 l -5.96875,-10.40625 15.125,0 L 77.8125,153 83.5,191.40625 84.03125,160.1875 a 2.50025,2.50025 0 0 1 0,-0.0937 c 0.03277,-0.64733 0.1348,-0.87518 0.1875,-1.03125 0.0044,-0.0441 0.02625,-0.0811 0.03125,-0.125 0.0039,-0.0117 0.03039,-0.121 0.03125,-0.125 0.65218,-5.19319 5.09585,-9.1875 10.4375,-9.1875 l 8.4375,0 c -1.16897,-0.65929 -2.37384,-1.37393 -3.5625,-2.5 -1.830425,-1.73403 -3.500223,-4.12082 -4.46875,-7.21875 l -47.90625,0 z m 60.28125,0.1875 c 1.62347,2.50966 3.99402,4.4584 6.8125,5.5625 -0.0134,-0.0302 -0.0174,-0.0637 -0.0312,-0.0937 -1.13154,-2.82654 -3.70201,-4.90718 -6.78125,-5.46875 z m 3.0625,9.1875 A 2.50025,2.50025 0 0 1 110.5,149.625 l 0.84375,0 c -0.25885,-0.12223 -0.52881,-0.21052 -0.78125,-0.34375 z M 94.71875,154.625 c -2.96452,0 -5.21625,2.09802 -5.5,4.9375 a 2.50025,2.50025 0 0 1 -0.0625,0.25 c -0.118,0.57905 -0.133,0.6865 -0.125,0.53125 l -0.8125,45.96875 4.8125,0 3.625,-31.1875 a 2.50025,2.50025 0 0 1 2.25,-2.15625 l 0,-12.84375 1.71875,0 0,13.3125 a 2.50025,2.50025 0 0 1 1,1.71875 c 0.67755,6.55709 1.25,14.09921 1.25,20.0625 0,4.51464 -0.35543,7.9991 -0.8125,11.09375 l 12.875,0 0,-32.6875 -7.3125,-17.34375 a 2.50025,2.50025 0 0 1 -0.0937,-1.65625 l -1.125,0 -11.6875,0 z m 19,3.1875 1.21875,2.90625 0,-2.90625 -1.21875,0 z"
             style="color:#000000;fill:#fcaf3e;fill-opacity:1;fill-rule:nonzero;stroke:#ffffff;stroke-width:3.5;stroke-linecap:round;stroke-linejoin:round;stroke-miterlimit:4;stroke-opacity:1;stroke-dasharray:none;stroke-dashoffset:0;marker:none;visibility:visible;display:inline;overflow:visible;enable-background:accumulate"
             inkscape:connector-curvature="0" />
          <g
             style="color:#000000;fill:#fcaf3e;fill-opacity:1;fill-rule:nonzero;stroke:#ffffff;stroke-width:3.5;stroke-linecap:round;stroke-linejoin:round;stroke-miterlimit:4;stroke-opacity:1;stroke-dasharray:none;stroke-dashoffset:0;marker:none;visibility:visible;display:inline;overflow:visible;enable-background:accumulate"
             transform="translate(-37.152288,-1.0101526)"
             id="g3088">
            <path
               d="m 214.05499,659.88569 c -0.2942,1.34684 -0.25621,2.68113 -0.0796,3.89332 2.77362,5.49015 8.45083,9.262 15.01913,9.262 6.97138,0 12.95157,-4.24021 15.50213,-10.28305 0.35304,-3.13486 0.16801,-6.75534 -1.2608,-10.53946 -0.75202,-1.97917 -1.52103,-5.08064 -1.83219,-6.38972 -1.09247,1.10739 -2.32809,2.2019 -3.78648,3.11814 -5.34527,3.36173 -16.77551,6.20472 -17.25882,6.32445 l -0.69317,0.17037 1.93319,-5.1939 c -1.8155,0.88871 -6.22372,3.62838 -7.54335,9.63785 z"
               id="path17"
               inkscape:connector-curvature="0"
               style="color:#000000;fill:#fcaf3e;fill-opacity:1;fill-rule:nonzero;stroke:#ffffff;stroke-width:3.5;stroke-linecap:round;stroke-linejoin:round;stroke-miterlimit:4;stroke-opacity:1;stroke-dasharray:none;stroke-dashoffset:0;marker:none;visibility:visible;display:inline;overflow:visible;enable-background:accumulate" />
            <path
               d="m 217.54726,673.04101 c -0.64284,-0.88055 -1.65568,-2.44578 -2.68521,-4.49869 -0.0759,-0.0652 -6.86659,-6.60196 -6.82883,-17.31559 0,-1.47304 0.23134,-2.86819 0.56321,-4.22119 -1.29854,2.34273 -2.35325,5.75303 -2.35325,10.78743 0,11.00579 8.35832,14.39678 11.30408,15.24804 z"
               id="path19"
               inkscape:connector-curvature="0"
               style="color:#000000;fill:#fcaf3e;fill-opacity:1;fill-rule:nonzero;stroke:#ffffff;stroke-width:3.5;stroke-linecap:round;stroke-linejoin:round;stroke-miterlimit:4;stroke-opacity:1;stroke-dasharray:none;stroke-dashoffset:0;marker:none;visibility:visible;display:inline;overflow:visible;enable-background:accumulate" />
            <path
               d="m 244.10992,651.9076 c 3.50047,9.23449 -0.13425,17.59076 -1.57986,20.34331 3.15593,-1.43321 12.5353,-7.09987 8.88758,-22.66115 -1.18059,-5.04463 -4.39124,-8.63553 -5.38712,-9.65894 l -3.82832,5.22554 c 0.18921,0.83428 1.07988,4.57655 1.90772,6.75124 z"
               id="path21"
               inkscape:connector-curvature="0"
               style="color:#000000;fill:#fcaf3e;fill-opacity:1;fill-rule:nonzero;stroke:#ffffff;stroke-width:3.5;stroke-linecap:round;stroke-linejoin:round;stroke-miterlimit:4;stroke-opacity:1;stroke-dasharray:none;stroke-dashoffset:0;marker:none;visibility:visible;display:inline;overflow:visible;enable-background:accumulate" />
            <g
               style="color:#000000;fill:#fcaf3e;fill-opacity:1;fill-rule:nonzero;stroke:#ffffff;stroke-width:3.5;stroke-linecap:round;stroke-linejoin:round;stroke-miterlimit:4;stroke-opacity:1;stroke-dasharray:none;stroke-dashoffset:0;marker:none;visibility:visible;display:inline;overflow:visible;enable-background:accumulate"
               id="g3084">
              <path
                 inkscape:connector-curvature="0"
                 id="rect3019"
                 d="m 204.21757,676.02357 c -4.19806,0 -7.60684,3.11638 -8.0146,7.19678 -0.0631,0.31087 -0.14708,0.57406 -0.16356,0.89957 l -0.8996,50.2139 9.40488,0 4.08908,-35.00252 c 0.67239,6.50712 1.22673,13.99391 1.22673,19.79114 0,6.58961 -0.71097,11.15653 -1.47207,15.21138 l 41.95396,0 c -0.82902,-4.89112 -1.71742,-9.78582 -1.71742,-15.21138 0,-4.6582 0.65905,-12.89249 1.39029,-20.11827 l 3.84374,35.32965 9.48666,0 -0.57247,-50.2139 c 0,-0.0356 0,-0.0437 0,-0.0816 0,-4.47117 -3.62932,-8.01457 -8.09638,-8.01457 l -12.10367,0 -26.66081,0 -11.69476,0 z m 15.21135,3.18948 19.62761,0 -9.81379,23.30775 -9.81382,-23.30775 z"
                 style="color:#000000;fill:#fcaf3e;fill-opacity:1;fill-rule:nonzero;stroke:#ffffff;stroke-width:3.5;stroke-linecap:round;stroke-linejoin:round;stroke-miterlimit:4;stroke-opacity:1;stroke-dasharray:none;stroke-dashoffset:0;marker:none;visibility:visible;display:inline;overflow:visible;enable-background:accumulate" />
              <path
                 style="color:#000000;fill:#fcaf3e;fill-opacity:1;fill-rule:nonzero;stroke:#ffffff;stroke-width:3.5;stroke-linecap:round;stroke-linejoin:round;stroke-miterlimit:4;stroke-opacity:1;stroke-dasharray:none;stroke-dashoffset:0;marker:none;visibility:visible;display:inline;overflow:visible;enable-background:accumulate"
                 inkscape:connector-curvature="0"
                 id="path23"
                 d="m 213.50055,659.73435 c 1.76078,-8.00939 8.74914,-10.50992 8.82467,-10.53507 l 0.7482,-0.26066 -2.01719,5.43164 c 2.6012,-0.67857 11.84621,-3.22327 16.35074,-6.05338 4.63949,-2.91444 7.53898,-7.78255 8.13995,-8.86476 -0.90773,-1.05911 -5.86631,-6.30776 -14.92222,-6.30776 -2.61819,0 -5.3874,0.44115 -8.22396,1.30497 -8.4889,2.59069 -13.57362,8.88146 -13.60702,16.83026 -0.0262,7.3247 3.23146,12.63017 5.17724,15.14091 -0.52924,-1.67735 -1.02103,-4.16498 -0.47041,-6.68626 z" />
            </g>
          </g>
        </g>
      </g>
    </g>
    <text
       xml:space="preserve"
       style="font-size:22.54754065999999924px;font-style:normal;font-variant:normal;font-weight:bold;font-stretch:normal;text-indent:0;text-align:start;text-decoration:none;line-height:129.99999522999999613%;letter-spacing:0px;word-spacing:0px;text-transform:none;direction:ltr;block-progression:tb;writing-mode:lr-tb;text-anchor:start;baseline-shift:baseline;color:#000000;fill:#000000;fill-opacity:1;fill-rule:nonzero;stroke:none;stroke-width:2;marker:none;visibility:visible;display:inline;overflow:visible;enable-background:accumulate;font-family:Droid Sans;-inkscape-font-specification:Droid Sans Bold"
       x="51.889786"
       y="1008.3461"
       id="text3106"
       sodipodi:linespacing="130%"><tspan
         sodipodi:role="line"
         id="tspan3108"
         x="51.889786"
         y="1008.3461">Baixe sua versão atualizada em  www.deliberatorio.com.br</tspan></text>
    <text
       xml:space="preserve"
       style="font-size:20px;font-style:normal;font-variant:normal;font-weight:normal;font-stretch:normal;line-height:125%;letter-spacing:0px;word-spacing:0px;fill:#000000;fill-opacity:1;stroke:none;font-family:Zrnic Rg;-inkscape-font-specification:Zrnic Rg"
       x="45.714287"
       y="275.21933"
       id="text3145"
       sodipodi:linespacing="125%"><tspan
         sodipodi:role="line"
         id="tspan3149"
         x="45.714287"
         y="275.21933" /></text>
  </g>
</svg>
