<svg xmlns="http://www.w3.org/2000/svg" xmlns:xlink="http://www.w3.org/1999/xlink" version="1.1" x="0px" y="0px" width="100px" height="100px" viewBox="0 0 100 100" enable-background="new 0 0 100 100" xml:space="preserve">
<g id="Captions">
</g>
<g id="Your_Icon">
	<g>
		<path fill="#000000" d="M95.4,66.265c-8.327-14.418-21.956-38.027-30.283-52.443c-8.326-14.428-21.955-14.428-30.283,0    c-8.322,14.416-21.952,38.025-30.28,52.443C-3.772,80.691,3.039,92.49,19.696,92.49c16.655,0,43.907,0,60.56,0    C96.911,92.49,103.727,80.691,95.4,66.265z M49.574,76.562c-4.262,0-7.712-3.453-7.712-7.714c0-4.262,3.45-7.716,7.712-7.716    c4.263,0,7.715,3.454,7.715,7.716C57.289,73.108,53.837,76.562,49.574,76.562z M57.575,48.47c0,4.417-3.584,8.002-8.001,8.002    c-4.416,0-7.999-3.585-7.999-8.002V34.757c0-4.418,3.583-8.001,7.999-8.001c4.417,0,8.001,3.583,8.001,8.001V48.47z"/>
	</g>
</g>
</svg>