<?xml version="1.0" encoding="UTF-8" standalone="no"?>
<svg
   xmlns:dc="http://purl.org/dc/elements/1.1/"
   xmlns:cc="http://creativecommons.org/ns#"
   xmlns:rdf="http://www.w3.org/1999/02/22-rdf-syntax-ns#"
   xmlns:svg="http://www.w3.org/2000/svg"
   xmlns="http://www.w3.org/2000/svg"
   xmlns:sodipodi="http://sodipodi.sourceforge.net/DTD/sodipodi-0.dtd"
   xmlns:inkscape="http://www.inkscape.org/namespaces/inkscape"
   version="1.1"
   id="Layer_1"
   x="0px"
   y="0px"
   width="800"
   height="800"
   viewBox="0 0 7152.0002 7152"
   enable-background="new 0 0 894 800"
   xml:space="preserve"
   inkscape:version="0.48.4 r9939"
   sodipodi:docname="mulher.svg"><metadata
     id="metadata31"><rdf:RDF><cc:Work
         rdf:about=""><dc:format>image/svg+xml</dc:format><dc:type
           rdf:resource="http://purl.org/dc/dcmitype/StillImage" /><dc:title /></cc:Work></rdf:RDF></metadata><defs
     id="defs29" /><sodipodi:namedview
     pagecolor="#ffffff"
     bordercolor="#666666"
     borderopacity="1"
     objecttolerance="10"
     gridtolerance="10"
     guidetolerance="10"
     inkscape:pageopacity="0"
     inkscape:pageshadow="2"
     inkscape:window-width="1366"
     inkscape:window-height="681"
     id="namedview27"
     showgrid="false"
     fit-margin-top="0"
     fit-margin-left="0"
     fit-margin-right="0"
     fit-margin-bottom="0"
     inkscape:zoom="0.3296625"
     inkscape:cx="-545.64095"
     inkscape:cy="486.0415"
     inkscape:window-x="0"
     inkscape:window-y="28"
     inkscape:window-maximized="1"
     inkscape:current-layer="Layer_1" /><g
     id="g7172"
     transform="translate(614.2966,-54.2374)"><path
       inkscape:connector-curvature="0"
       id="rect3019"
       d="m 1227.785,3166.0939 c -290.87013,0 -527.05358,215.9265 -555.30719,498.6432 -4.36072,21.5399 -10.1976,39.7759 -11.33281,62.3299 l -62.33029,3479.1705 651.63589,0 283.32,-2425.2192 c 46.5888,450.8579 84.9961,969.5948 84.9961,1371.2678 0,456.5754 -49.2599,773.0034 -101.9952,1053.9514 l 2906.863,0 c -57.4383,-338.8928 -118.9942,-678.031 -118.9942,-1053.9514 0,-322.7541 45.6634,-893.2822 96.3286,-1393.9334 l 266.3209,2447.8848 657.3025,0 -39.6649,-3479.1705 c 0,-2.4745 0,-3.0282 0,-5.665 0,-309.7936 -251.4639,-555.3081 -560.9736,-555.3081 l -838.6272,0 -1847.2463,0 -810.2953,0 z m 1053.9505,220.9891 1359.9359,0 -679.968,1614.9244 -679.9679,-1614.9244 z"
       style="fill:#000000;fill-opacity:1;stroke:none" /><path
       inkscape:connector-curvature="0"
       id="path17"
       d="m 1909.3908,2047.9507 c -20.3838,93.3194 -17.7471,185.7666 -5.5168,269.7561 192.1759,380.3967 585.533,641.7356 1040.63,641.7356 483.0256,0 897.3751,-293.7908 1074.0958,-712.4807 24.4606,-217.2044 11.6421,-468.0573 -87.3564,-730.2481 -52.1055,-137.1294 -105.3874,-352.0216 -126.9476,-442.7245 -75.694,76.7284 -161.306,152.5643 -262.3531,216.0482 -370.3569,232.9233 -1162.3244,429.9061 -1195.8106,438.2016 l -48.0288,11.8044 133.945,-359.8709 c -125.7914,61.5774 -431.2243,251.4006 -522.6575,667.7783 z" /><path
       inkscape:connector-curvature="0"
       id="path19"
       d="m 2151.36,2959.4424 c -44.5401,-61.0095 -114.7173,-169.4596 -186.0506,-311.7001 -5.2531,-4.523 -475.7646,-457.4294 -473.1481,-1199.7455 0,-102.0611 16.0231,-198.7271 39.0233,-292.4724 -89.9728,162.3202 -163.0503,398.6103 -163.0503,747.4273 0,762.5579 579.1237,997.5094 783.2257,1056.4907 z" /><path
       inkscape:connector-curvature="0"
       id="path21"
       d="m 3991.8067,1495.1737 c 242.5371,639.8291 -9.3096,1218.8109 -109.4642,1409.5264 218.6647,-99.3026 868.5336,-491.9297 615.7944,-1570.1226 C 4416.338,985.05067 4193.8804,736.24626 4124.8797,665.33896 l -265.2535,362.06134 c 13.1024,57.8049 74.8218,317.0954 132.1805,467.7734 z" /><path
       inkscape:connector-curvature="0"
       id="path23"
       d="m 1870.9759,2037.4647 c 121.9988,-554.9472 606.2009,-728.1996 611.4337,-729.9439 l 51.8419,-18.0513 -139.7661,376.3402 c 180.2295,-47.0147 820.7888,-223.3297 1132.8945,-419.4201 321.4561,-201.9318 522.3534,-539.22831 563.9931,-614.21238 -62.8957,-73.3818 -406.4595,-437.04551 -1033.9163,-437.04551 -181.406,0 -373.2776,30.56563 -569.8142,90.41899 -588.1697,179.49937 -940.4754,615.36851 -942.7876,1166.1172 -1.7442,507.5066 223.8977,875.1051 358.7149,1049.0674 -36.6707,-116.2182 -70.7451,-288.5782 -32.5939,-463.2706 z" /></g></svg>