<?xml version="1.0" encoding="UTF-8" standalone="no"?>
<svg
   xmlns:dc="http://purl.org/dc/elements/1.1/"
   xmlns:cc="http://creativecommons.org/ns#"
   xmlns:rdf="http://www.w3.org/1999/02/22-rdf-syntax-ns#"
   xmlns:svg="http://www.w3.org/2000/svg"
   xmlns="http://www.w3.org/2000/svg"
   xmlns:sodipodi="http://sodipodi.sourceforge.net/DTD/sodipodi-0.dtd"
   xmlns:inkscape="http://www.inkscape.org/namespaces/inkscape"
   version="1.1"
   id="Layer_1"
   x="0px"
   y="0px"
   width="46.279999"
   height="41.088406"
   viewBox="0 0 413.74319 367.33035"
   enable-background="new 0 0 894 800"
   xml:space="preserve"
   inkscape:version="0.48.4 r9939"
   sodipodi:docname="DEPS_noun_project_3287.svg"><metadata
   id="metadata31"><rdf:RDF><cc:Work
       rdf:about=""><dc:format>image/svg+xml</dc:format><dc:type
         rdf:resource="http://purl.org/dc/dcmitype/StillImage" /><dc:title></dc:title></cc:Work></rdf:RDF></metadata><defs
   id="defs29">
	

		
	
			
			
		</defs><sodipodi:namedview
   pagecolor="#ffffff"
   bordercolor="#666666"
   borderopacity="1"
   objecttolerance="10"
   gridtolerance="10"
   guidetolerance="10"
   inkscape:pageopacity="0"
   inkscape:pageshadow="2"
   inkscape:window-width="1366"
   inkscape:window-height="715"
   id="namedview27"
   showgrid="false"
   inkscape:zoom="7.4594109"
   inkscape:cx="18.15397"
   inkscape:cy="17.566857"
   inkscape:window-x="-8"
   inkscape:window-y="-8"
   inkscape:window-maximized="1"
   inkscape:current-layer="Layer_1"
   fit-margin-top="0"
   fit-margin-left="0"
   fit-margin-right="0"
   fit-margin-bottom="0" />
<path
   style="fill:#000000;fill-opacity:1;stroke:none"
   d="m 110.26398,141.67635 c -12.962999,0 -23.932239,7.94388 -28.496249,19.27687 -1.42199,3.094 -1.95562,6.43351 -1.95562,10.0575 l 0,197.51813 48.890619,0 0,-157.84688 5.02875,0 0,157.84688 153.0975,0 0,-157.84688 5.86688,0 0,157.84688 48.89062,0 0,-197.51813 c 0,-3.625 -0.81398,-6.9635 -2.235,-10.0575 -4.53699,-11.33299 -15.82662,-19.27687 -28.77562,-19.27687 l -200.31188,0 z m 73.47563,9.21937 51.68437,0 -20.67375,35.48063 20.67375,139.40812 -25.98187,41.62688 -25.7025,-41.62688 20.39437,-139.40812 -20.39437,-35.48063 z"
   id="rect3008"
   inkscape:connector-curvature="0" /><path
   inkscape:connector-curvature="0"
   id="path9"
   d="m 209.47409,126.73849 c 34.654,0 62.763,-28.101004 62.763,-62.770004 0,-34.669 -28.108,-62.7699999 -62.763,-62.7699999 -34.683,0 -62.776,28.1009999 -62.776,62.7699999 0,34.669 28.094,62.770004 62.776,62.770004 z" />

</svg>