<?xml version="1.0" encoding="UTF-8" standalone="no"?>
<svg
   xmlns:dc="http://purl.org/dc/elements/1.1/"
   xmlns:cc="http://creativecommons.org/ns#"
   xmlns:rdf="http://www.w3.org/1999/02/22-rdf-syntax-ns#"
   xmlns:svg="http://www.w3.org/2000/svg"
   xmlns="http://www.w3.org/2000/svg"
   xmlns:sodipodi="http://sodipodi.sourceforge.net/DTD/sodipodi-0.dtd"
   xmlns:inkscape="http://www.inkscape.org/namespaces/inkscape"
   version="1.1"
   id="Layer_1"
   x="0px"
   y="0px"
   width="800"
   height="800"
   viewBox="0 0 7152 7152.0001"
   enable-background="new 0 0 894 800"
   xml:space="preserve"
   inkscape:version="0.48.4 r9939"
   sodipodi:docname="homem.svg"><metadata
     id="metadata31"><rdf:RDF><cc:Work
         rdf:about=""><dc:format>image/svg+xml</dc:format><dc:type
           rdf:resource="http://purl.org/dc/dcmitype/StillImage" /><dc:title /></cc:Work></rdf:RDF></metadata><defs
     id="defs29" /><sodipodi:namedview
     pagecolor="#ffffff"
     bordercolor="#666666"
     borderopacity="1"
     objecttolerance="10"
     gridtolerance="10"
     guidetolerance="10"
     inkscape:pageopacity="0"
     inkscape:pageshadow="2"
     inkscape:window-width="1366"
     inkscape:window-height="681"
     id="namedview27"
     showgrid="false"
     inkscape:zoom="0.3296625"
     inkscape:cx="-284.28078"
     inkscape:cy="640.24952"
     inkscape:window-x="0"
     inkscape:window-y="28"
     inkscape:window-maximized="1"
     inkscape:current-layer="Layer_1"
     fit-margin-top="0"
     fit-margin-left="0"
     fit-margin-right="0"
     fit-margin-bottom="0" /><g
     id="g7179"
     transform="matrix(1.2195229,0,0,1.2195229,1009.3544,-1571.4894)"><path
       inkscape:connector-curvature="0"
       id="rect3008"
       d="m 550.90115,3643.8007 c -200.53701,0 -370.23066,122.8918 -440.83569,298.2112 -21.998117,47.8641 -30.253349,99.5275 -30.253349,155.5891 l 0,3055.5976 756.335669,0 0,-2441.8844 77.79453,0 0,2441.8844 2368.41139,0 0,-2441.8844 90.7604,0 0,2441.8844 756.3357,0 0,-3055.5976 c 0,-56.0786 -12.5923,-107.725 -34.5754,-155.5891 -70.187,-175.3194 -244.8371,-298.2112 -445.1575,-298.2112 l -3098.81575,0 z m 1136.66465,142.6221 799.5549,0 -319.822,548.8849 319.822,2156.637 -401.9384,643.9662 -397.6165,-643.9662 315.5,-2156.637 -315.5,-548.8849 z"
       style="fill:#000000;fill-opacity:1;stroke:none" /><path
       d="m 2085.6771,3412.7121 c 536.0958,0 970.9407,-434.7212 970.9407,-971.0491 0,-536.3279 -434.8295,-971.0491 -970.9407,-971.0491 -536.5445,0 -971.1419,434.7212 -971.1419,971.0491 0,536.3279 434.6129,971.0491 971.1419,971.0491 z"
       id="path9"
       inkscape:connector-curvature="0" /></g></svg>