<?xml version="1.0" encoding="UTF-8" standalone="no"?>
<svg
   xmlns:dc="http://purl.org/dc/elements/1.1/"
   xmlns:cc="http://creativecommons.org/ns#"
   xmlns:rdf="http://www.w3.org/1999/02/22-rdf-syntax-ns#"
   xmlns:svg="http://www.w3.org/2000/svg"
   xmlns="http://www.w3.org/2000/svg"
   xmlns:sodipodi="http://sodipodi.sourceforge.net/DTD/sodipodi-0.dtd"
   xmlns:inkscape="http://www.inkscape.org/namespaces/inkscape"
   version="1.1"
   id="Layer_1"
   x="0px"
   y="0px"
   width="46"
   height="41"
   viewBox="0 0 411.24001 366.54"
   enable-background="new 0 0 894 800"
   xml:space="preserve"
   inkscape:version="0.48.4 r9939"
   sodipodi:docname="DEPS_noun_project_3287.svg"><metadata
   id="metadata31"><rdf:RDF><cc:Work
       rdf:about=""><dc:format>image/svg+xml</dc:format><dc:type
         rdf:resource="http://purl.org/dc/dcmitype/StillImage" /><dc:title></dc:title></cc:Work></rdf:RDF></metadata><defs
   id="defs29">
	

		
		
		
		
		
	</defs><sodipodi:namedview
   pagecolor="#ffffff"
   bordercolor="#666666"
   borderopacity="1"
   objecttolerance="10"
   gridtolerance="10"
   guidetolerance="10"
   inkscape:pageopacity="0"
   inkscape:pageshadow="2"
   inkscape:window-width="1366"
   inkscape:window-height="715"
   id="namedview27"
   showgrid="false"
   fit-margin-top="0"
   fit-margin-left="0"
   fit-margin-right="0"
   fit-margin-bottom="0"
   inkscape:zoom="5.2746"
   inkscape:cx="-5.21875"
   inkscape:cy="14.755543"
   inkscape:window-x="-8"
   inkscape:window-y="-8"
   inkscape:window-maximized="1"
   inkscape:current-layer="Layer_1" />

<path
   style="fill:#000000;fill-opacity:1;stroke:none"
   d="m 120.41062,167.34564 c -14.341,0 -25.98574,10.646 -27.37875,24.585 -0.215,1.062 -0.50278,1.96112 -0.55875,3.07312 L 89.4,366.54001 l 32.12812,0 13.96875,-119.5725 c 2.297,22.229 4.19063,47.80475 4.19063,67.60875 0,22.51082 -2.4287,38.11193 -5.02875,51.96375 l 143.31937,0 c -2.83193,-16.70867 -5.86687,-33.42948 -5.86687,-51.96375 0,-15.913 2.25138,-44.04224 4.74937,-68.72625 l 13.13063,120.69 32.4075,0 -1.95563,-171.53625 c 0,-0.12203 0,-0.14938 0,-0.27937 0,-15.274 -12.39812,-27.37875 -27.65812,-27.37875 l -41.3475,0 -91.07625,0 -39.95063,0 z m 51.96375,10.89562 67.05,0 -33.525,79.62188 -33.525,-79.62188 z"
   id="rect3019"
   inkscape:connector-curvature="0" /><path
   d="m 154.01637,112.21689 c -1.005,4.601 -0.875,9.159 -0.272,13.3 9.475,18.755 28.869,31.64 51.307,31.64 23.815,0 44.244,-14.485 52.957,-35.128 1.206,-10.709 0.574,-23.077001 -4.307,-36.004001 -2.569,-6.761 -5.196,-17.356 -6.259,-21.828 -3.732,3.783 -7.953,7.522 -12.935,10.652 -18.26,11.484 -57.307,21.196 -58.958,21.605 l -2.368,0.582 6.604,-17.743 c -6.202,3.036 -21.261,12.395 -25.769,32.924001 z"
   id="path17"
   inkscape:connector-curvature="0" /><path
   d="m 165.94637,157.15689 c -2.196,-3.008 -5.656,-8.355 -9.173,-15.368 -0.259,-0.223 -23.457,-22.553 -23.328,-59.152001 0,-5.032 0.79,-9.798 1.924,-14.42 -4.436,8.003 -8.039,19.653 -8.039,36.851001 0,37.597 28.553,49.181 38.616,52.089 z"
   id="path19"
   inkscape:connector-curvature="0" /><path
   d="m 256.68737,84.962889 c 11.958,31.546001 -0.459,60.092001 -5.397,69.495001 10.781,-4.896 42.822,-24.254 30.361,-77.413001 -4.033,-17.233 -15.001,-29.5 -18.403,-32.996 l -13.078,17.851 c 0.646,2.85 3.689,15.634 6.517,23.063 z"
   id="path21"
   inkscape:connector-curvature="0" /><path
   d="m 152.12237,111.69989 c 6.015,-27.361001 29.888,-35.903001 30.146,-35.989001 l 2.556,-0.89 -6.891,18.555 c 8.886,-2.318 40.468,-11.011 55.856,-20.679 15.849,-9.956 25.754,-26.586 27.807,-30.283 -3.101,-3.618 -20.04,-21.548 -50.976,-21.548 -8.944,0 -18.404,1.507 -28.094,4.458 -28.999,8.85 -46.369,30.34 -46.483,57.494 -0.086,25.022001 11.039,43.146001 17.686,51.723001 -1.808,-5.73 -3.488,-14.228 -1.607,-22.841 z"
   id="path23"
   inkscape:connector-curvature="0" />
</svg>