<svg xmlns="http://www.w3.org/2000/svg" xmlns:xlink="http://www.w3.org/1999/xlink" version="1.1" x="0px" y="0px" width="100px" height="100px" viewBox="0 0 100 100" enable-background="new 0 0 100 100" xml:space="preserve">
<g id="Captions">
</g>
<g id="Your_Icon">
	<path d="M79.185,38.336c1.429-1.658,2.299-3.811,2.299-6.166c0-0.09-0.018-0.172-0.026-0.26c0.009-0.088,0.027-0.176,0.027-0.268   c0-5.219-4.245-9.465-9.466-9.465c-0.078,0-0.152,0.018-0.23,0.023c-0.077-0.006-0.151-0.023-0.23-0.023   c-5.219,0-9.465,4.246-9.465,9.465c0,0.09,0.02,0.176,0.027,0.262c-0.009,0.09-0.027,0.174-0.027,0.266   c0,2.516,0.992,4.797,2.597,6.494c-0.652,0.312-1.279,0.672-1.881,1.064c-1.537-5.398-6.5-9.365-12.384-9.365   c-0.107,0-0.209,0.023-0.314,0.031c-0.105-0.008-0.205-0.031-0.312-0.031c-5.864,0-10.815,3.941-12.37,9.311   c-0.797-0.514-1.634-0.967-2.517-1.338c1.428-1.658,2.299-3.811,2.299-6.166c0-0.09-0.019-0.172-0.027-0.26   c0.009-0.088,0.027-0.176,0.027-0.268c0-5.219-4.246-9.465-9.465-9.465c-0.08,0-0.153,0.018-0.231,0.023   c-0.077-0.006-0.151-0.023-0.229-0.023c-5.219,0-9.465,4.246-9.465,9.465c0,0.09,0.02,0.176,0.025,0.262   c-0.008,0.09-0.025,0.174-0.025,0.266c0,2.516,0.992,4.797,2.596,6.494C14.853,41.33,11,47.018,11,53.588   c0,1.684,1.366,3.049,3.05,3.049s3.049-1.365,3.049-3.049c0-5.758,4.686-10.443,10.445-10.443c0.166,0,0.325-0.021,0.483-0.049   c0.159,0.027,0.34,0.049,0.506,0.049C34.293,43.145,39,47.83,39,53.588c0,0.002,0,0.004,0,0.006   c-6,3.891-11.35,11.186-11.35,19.529c0,2.293,1.85,4.15,4.141,4.15c2.293,0,4.146-1.857,4.146-4.15   c0-7.838,6.376-14.217,14.217-14.217c0.226,0,0.441-0.031,0.657-0.066c0.217,0.035,0.434,0.066,0.66,0.066   c7.84,0,14.219,6.379,14.219,14.217c0,2.293,1.857,4.15,4.149,4.15c2.293,0,4.15-1.857,4.15-4.15   c0-8.848-5.139-16.516-12.584-20.193c0.343-5.451,4.876-9.785,10.413-9.785c0.165,0,0.325-0.021,0.483-0.049   c0.159,0.027,0.318,0.049,0.484,0.049c5.76,0,10.445,4.686,10.445,10.443c0,1.684,1.365,3.049,3.049,3.049s3.049-1.365,3.049-3.049   C89.329,46.736,85.139,40.842,79.185,38.336z M31.111,32.17c0,1.857-1.511,3.369-3.366,3.369c-0.08,0-0.153,0.018-0.231,0.021   c-0.077-0.004-0.151-0.021-0.229-0.021c-1.857,0-3.367-1.512-3.367-3.369c0-0.09-0.02-0.174-0.027-0.262   c0.008-0.088,0.027-0.174,0.027-0.266c0-1.857,1.51-3.367,3.367-3.367c0.078,0,0.152-0.018,0.229-0.023   c0.078,0.006,0.151,0.023,0.231,0.023c1.857,0,3.367,1.51,3.367,3.367c0,0.09,0.02,0.174,0.026,0.26   C31.132,31.992,31.111,32.078,31.111,32.17z M55.008,43.967c0,2.527-2.056,4.586-4.583,4.586c-0.107,0-0.209,0.023-0.314,0.029   c-0.105-0.006-0.205-0.029-0.314-0.029c-2.527,0-4.583-2.059-4.583-4.586c0-0.121-0.025-0.236-0.036-0.355   c0.011-0.123,0.037-0.24,0.037-0.363c0-2.527,2.055-4.584,4.584-4.584c0.107,0,0.207-0.023,0.312-0.031   c0.105,0.008,0.207,0.031,0.314,0.031c2.527,0,4.584,2.057,4.584,4.584c0,0.121,0.025,0.234,0.035,0.355   C55.034,43.725,55.008,43.842,55.008,43.967z M75.386,32.17c0,1.857-1.51,3.369-3.367,3.369c-0.078,0-0.152,0.018-0.23,0.021   c-0.077-0.004-0.151-0.021-0.23-0.021c-1.856,0-3.367-1.512-3.367-3.369c0-0.09-0.018-0.174-0.026-0.262   c0.009-0.088,0.027-0.174,0.027-0.266c0-1.857,1.51-3.367,3.366-3.367c0.079,0,0.153-0.018,0.23-0.023   c0.078,0.006,0.152,0.023,0.23,0.023c1.857,0,3.367,1.51,3.367,3.367c0,0.09,0.02,0.174,0.027,0.26   C75.405,31.992,75.386,32.078,75.386,32.17z"/>
</g>
</svg>