<?xml version="1.0" encoding="utf-8"?>
<!-- Generator: Adobe Illustrator 16.0.0, SVG Export Plug-In . SVG Version: 6.00 Build 0)  -->
<!DOCTYPE svg PUBLIC "-//W3C//DTD SVG 1.1//EN" "http://www.w3.org/Graphics/SVG/1.1/DTD/svg11.dtd">
<svg version="1.1" id="Layer_1" xmlns="http://www.w3.org/2000/svg" xmlns:xlink="http://www.w3.org/1999/xlink" x="0px" y="0px"
	 width="100px" height="83.262px" viewBox="0 0 100 83.262" enable-background="new 0 0 100 83.262" xml:space="preserve">
<path fill="#010101" d="M96.505,74.579h-3.603v-4.744H42.862v4.744h-3.596c-1.92,0-3.478,1.954-3.478,4.343
	c-0.02,2.422,1.558,4.352,3.478,4.34h57.238c1.927,0.03,3.518-1.918,3.495-4.325C100.001,76.533,98.431,74.579,96.505,74.579z"/>
<path fill="#010101" d="M58.534,58.041c1.708,1.707,4.163,1.966,5.539,0.599l17.429-17.47c1.386-1.354,1.111-3.84-0.592-5.533
	c-1.7-1.695-4.192-1.975-5.539-0.6L57.918,52.516C56.55,53.877,56.831,56.354,58.534,58.041z"/>
<path fill="#010101" d="M24.363,23.88c1.708,1.715,4.18,1.966,5.533,0.591L47.341,7.006c1.37-1.359,1.11-3.85-0.593-5.539
	c-1.699-1.69-4.191-1.967-5.539-0.585L23.758,18.345C22.396,19.722,22.668,22.184,24.363,23.88z"/>
<path fill="#010101" d="M49.831,9.492L32.229,27.125l8.072,8.051L1.248,74.219C0.478,75.017,0,76.096,0,77.291
	c0,0.541,0.11,1.054,0.287,1.533c0.45,1.216,1.407,2.173,2.623,2.62c0.478,0.174,0.99,0.285,1.529,0.285
	c1.146,0,2.183-0.448,2.971-1.162l39.092-39.176l0.055,0.014l8.729,8.764l17.58-17.631L49.831,9.492z"/>
</svg>
